<svg viewBox="0 0 24 24" fill="none" xmlns="http://www.w3.org/2000/svg" id="icon">
<path d="M9.5 5.5C9.5 4.39543 10.3954 3.5 11.5 3.5H17.5C18.6046 3.5 19.5 4.39543 19.5 5.5V18.5003C19.5 19.6049 18.6046 20.5003 17.5 20.5003H6.5C5.39543 20.5003 4.5 19.6049 4.5 18.5003V11.5C4.5 10.3954 5.39543 9.5 6.5 9.5H7.5C8.60457 9.5 9.5 8.60457 9.5 7.5V5.5Z" stroke="currentColor" stroke-linecap="round"/>
<path d="M12.4764 16.9526L10 14.4762L12.4764 11.9998M10 14.4762H13.9528C14.5051 14.4762 14.9528 14.0285 14.9528 13.4762V9.52344" stroke="currentColor" stroke-linecap="round" stroke-linejoin="round"/>
</svg>
