<svg viewBox="0 0 24 24" fill="none" xmlns="http://www.w3.org/2000/svg" id="icon">
<path d="M19.4977 4.48206L11.9805 12M14.5339 4.48173L19.4977 4.48206V9.44727" stroke="currentColor" stroke-linecap="round" stroke-linejoin="round"/>
<path d="M17.5 12V14.3C17.5 15.4201 17.5 15.9802 17.282 16.408C17.0903 16.7843 16.7843 17.0903 16.408 17.282C15.9802 17.5 15.4201 17.5 14.3 17.5H9.7C8.57989 17.5 8.01984 17.5 7.59202 17.282C7.21569 17.0903 6.90973 16.7843 6.71799 16.408C6.5 15.9802 6.5 15.4201 6.5 14.3V9.7C6.5 8.57989 6.5 8.01984 6.71799 7.59202C6.90973 7.21569 7.21569 6.90973 7.59202 6.71799C8.01984 6.5 8.57989 6.5 9.7 6.5H12" stroke="currentColor" stroke-linecap="round"/>
</svg>
