<svg viewBox="0 0 24 24" fill="none" xmlns="http://www.w3.org/2000/svg" id="icon">
<path d="M15.9007 19.7955C14.11 19.4175 12.4552 18.5682 11.0689 17.3802M11.1847 21.6311L12.6081 22.3427C12.8343 22.4557 13.1092 22.3822 13.2487 22.1713L14.3407 20.5207C14.7109 19.9612 15.3853 19.6846 16.0418 19.8232C16.4408 19.9074 16.8409 19.6846 16.9794 19.301L21.562 6.60709C21.7342 6.13014 21.5222 5.5998 21.0686 5.37306L19.5039 4.59091C19.0504 4.36417 18.4989 4.51282 18.2207 4.93679L10.8336 16.1956C10.6004 16.5509 10.6649 17.0237 10.9847 17.3036C11.4814 17.7385 11.6821 18.4213 11.4997 19.0559L10.9277 21.0458C10.8611 21.2773 10.9692 21.5234 11.1847 21.6311Z" stroke="currentColor" stroke-linecap="round"/>
<path d="M15.5 4.5L6.5 4.5C5.39543 4.5 4.5 5.39543 4.5 6.5L4.5 17.5C4.5 18.6046 5.39543 19.5 6.5 19.5L8.5 19.5" stroke="currentColor" stroke-linecap="round" stroke-linejoin="round"/>
</svg>
