<svg viewBox="0 0 24 24" fill="none" xmlns="http://www.w3.org/2000/svg" id="icon">
<path d="M17.4244 2.36648C17.9183 1.37848 19.1196 0.977924 20.1076 1.47182C21.0956 1.96571 21.4962 3.16702 21.0023 4.15502L12.7905 20.5823L10.0114 22.669C9.68179 22.9166 9.21104 22.6813 9.21121 22.269L9.2126 18.7937L17.4244 2.36648Z" fill="currentColor"/>
<path d="M19.5 12.5L19.5 17.5C19.5 18.6046 18.6046 19.5 17.5 19.5L15.9706 19.5" stroke="currentColor" stroke-linecap="round" stroke-linejoin="round"/>
<path d="M13.5 4.5L6.5 4.5C5.39543 4.5 4.5 5.39543 4.5 6.5L4.5 17.5C4.5 18.6046 5.39543 19.5 6.5 19.5L7.02941 19.5" stroke="currentColor" stroke-linecap="round" stroke-linejoin="round"/>
</svg>
