<svg width="200" height="200" viewBox="0 0 200 200" fill="none" xmlns="http://www.w3.org/2000/svg">
<path d="M58.7399 107.217V96.5372H60.2544V97.9547H60.6428L60.2738 98.2848C60.2738 97.7152 60.4357 97.2492 60.7593 96.8867C61.0959 96.5242 61.536 96.343 62.0797 96.343C62.701 96.343 63.1929 96.576 63.5554 97.042C63.9179 97.5081 64.0991 98.1165 64.0991 98.8673L63.5748 97.8576H64.3904L63.9437 98.2848C63.9567 97.6893 64.1315 97.2168 64.468 96.8673C64.8046 96.5178 65.2512 96.343 65.8078 96.343C66.4939 96.343 67.0376 96.6019 67.4389 97.1197C67.8531 97.6246 68.0602 98.2848 68.0602 99.1003V107.217H66.4292V99.0809C66.4292 98.6537 66.3256 98.3171 66.1185 98.0712C65.9114 97.8123 65.6266 97.6828 65.2641 97.6828C64.9146 97.6828 64.6363 97.8058 64.4292 98.0518C64.2221 98.2977 64.1185 98.6343 64.1185 99.0615V107.217H62.6816V99.0809C62.6816 98.6537 62.5781 98.3171 62.3709 98.0712C62.1638 97.8123 61.8855 97.6828 61.536 97.6828C61.1735 97.6828 60.8887 97.8058 60.6816 98.0518C60.4745 98.2977 60.3709 98.6343 60.3709 99.0615V107.217H58.7399Z" fill="black"/>
<path d="M51.7572 107.411C50.9157 107.411 50.1779 107.243 49.5436 106.906C48.9222 106.557 48.4368 106.065 48.0873 105.43C47.7377 104.783 47.563 104.019 47.563 103.139V100.615C47.563 99.7217 47.7377 98.9579 48.0873 98.3236C48.4368 97.6893 48.9222 97.2039 49.5436 96.8673C50.1779 96.5178 50.9157 96.343 51.7572 96.343C52.5986 96.343 53.33 96.5113 53.9513 96.8479C54.5856 97.1844 55.0775 97.6569 55.4271 98.2653C55.7766 98.8738 55.9513 99.5922 55.9513 100.421V102.324H49.2717V103.333C49.2717 104.123 49.4983 104.751 49.9513 105.217C50.4044 105.67 51.0064 105.896 51.7572 105.896C52.4044 105.896 52.9352 105.773 53.3494 105.527C53.7766 105.269 54.0355 104.926 54.1261 104.498H55.8737C55.7572 105.392 55.3235 106.104 54.5727 106.634C53.8219 107.152 52.8834 107.411 51.7572 107.411ZM54.2426 101.139V100.421C54.2426 99.5793 54.0225 98.932 53.5824 98.4789C53.1552 98.0129 52.5468 97.7799 51.7572 97.7799C50.9675 97.7799 50.3526 98.0129 49.9125 98.4789C49.4853 98.932 49.2717 99.5793 49.2717 100.421V100.964H54.3785L54.2426 101.139Z" fill="black"/>
<path d="M36.4639 107.217V96.5372H38.2114V98.576H38.5804L38.2114 99.042C38.2114 98.2136 38.4639 97.5598 38.9687 97.0809C39.4865 96.589 40.1985 96.343 41.1046 96.343C42.2179 96.343 43.0723 96.6796 43.6677 97.3527C44.2762 98.0129 44.5804 98.9579 44.5804 100.188V101.1H42.8328V100.188C42.8328 99.398 42.6386 98.8155 42.2503 98.4401C41.8619 98.0518 41.2988 97.8576 40.561 97.8576C39.7972 97.8576 39.2147 98.0776 38.8134 98.5178C38.4121 98.9579 38.2114 99.5922 38.2114 100.421V107.217H36.4639Z" fill="black"/>
<path d="M28.4714 107.372C27.617 107.372 26.8727 107.204 26.2384 106.867C25.617 106.531 25.1316 106.045 24.7821 105.411C24.4455 104.764 24.2772 103.994 24.2772 103.1V100.654C24.2772 99.7476 24.4455 98.9774 24.7821 98.3431C25.1316 97.7088 25.617 97.2234 26.2384 96.8868C26.8727 96.5502 27.617 96.382 28.4714 96.382C29.3387 96.382 30.083 96.5502 30.7044 96.8868C31.3258 97.2234 31.8047 97.7088 32.1413 98.3431C32.4908 98.9774 32.6656 99.7476 32.6656 100.654V103.1C32.6656 103.994 32.4908 104.764 32.1413 105.411C31.8047 106.045 31.3193 106.531 30.685 106.867C30.0636 107.204 29.3258 107.372 28.4714 107.372ZM28.4714 105.819C29.2351 105.819 29.8306 105.605 30.2578 105.178C30.6979 104.751 30.918 104.123 30.918 103.295V100.46C30.918 99.6311 30.6979 99.0033 30.2578 98.5761C29.8306 98.1489 29.2351 97.9354 28.4714 97.9354C27.7206 97.9354 27.1251 98.1489 26.685 98.5761C26.2449 99.0033 26.0248 99.6311 26.0248 100.46V103.295C26.0248 104.123 26.2449 104.751 26.685 105.178C27.1251 105.605 27.7206 105.819 28.4714 105.819Z" fill="black"/>
<path d="M18.3819 107.217C17.7606 107.217 17.2169 107.094 16.7509 106.848C16.2848 106.602 15.9224 106.252 15.6635 105.799C15.4046 105.346 15.2751 104.816 15.2751 104.207V94.6343H11.5858V93.0421H17.0227V104.207C17.0227 104.647 17.1457 104.997 17.3916 105.256C17.6376 105.502 17.9677 105.625 18.3819 105.625H21.6829V107.217H18.3819Z" fill="black"/>
<path d="M127.892 107.217V96.5372H130.28V98.1877H130.688L130.319 98.4013C130.319 97.7929 130.481 97.3009 130.805 96.9255C131.128 96.5372 131.562 96.343 132.106 96.343C132.649 96.343 133.102 96.5631 133.465 97.0032C133.84 97.4304 134.028 97.987 134.028 98.6731L133.62 98.1877H134.164L133.97 98.4013C133.97 97.7799 134.138 97.2815 134.474 96.9061C134.824 96.5307 135.271 96.343 135.814 96.343C136.449 96.343 136.979 96.5954 137.407 97.1003C137.847 97.6052 138.067 98.2589 138.067 99.0615V107.217H135.562V99.3916C135.562 99.0938 135.497 98.8673 135.368 98.7119C135.251 98.5437 135.07 98.4595 134.824 98.4595C134.578 98.4595 134.397 98.5437 134.28 98.7119C134.177 98.8673 134.125 99.0938 134.125 99.3916V107.217H131.834V99.3916C131.834 99.0938 131.775 98.8673 131.659 98.7119C131.555 98.5437 131.381 98.4595 131.135 98.4595C130.889 98.4595 130.701 98.5437 130.572 98.7119C130.455 98.8673 130.397 99.0938 130.397 99.3916V107.217H127.892Z" fill="black"/>
<path d="M121.336 107.411C119.9 107.411 118.773 107.023 117.958 106.246C117.155 105.469 116.754 104.408 116.754 103.061V96.5372H119.667V103.042C119.667 103.638 119.809 104.097 120.094 104.421C120.379 104.731 120.793 104.887 121.336 104.887C121.867 104.887 122.275 104.731 122.56 104.421C122.857 104.097 123.006 103.638 123.006 103.042V96.5372H125.919V103.061C125.919 104.421 125.511 105.489 124.696 106.265C123.88 107.029 122.76 107.411 121.336 107.411Z" fill="black"/>
<path d="M109.247 107.411C108.367 107.411 107.597 107.275 106.936 107.003C106.276 106.718 105.758 106.33 105.383 105.838C105.02 105.346 104.839 104.77 104.839 104.11H107.694C107.694 104.472 107.83 104.744 108.101 104.926C108.373 105.107 108.755 105.197 109.247 105.197H110.101C110.632 105.197 111.04 105.107 111.325 104.926C111.622 104.744 111.771 104.485 111.771 104.149C111.771 103.825 111.655 103.592 111.422 103.45C111.189 103.294 110.833 103.191 110.354 103.139L107.907 102.848C106.962 102.731 106.237 102.382 105.732 101.799C105.228 101.204 104.975 100.466 104.975 99.5857C104.975 98.5113 105.325 97.7022 106.024 97.1586C106.723 96.6149 107.758 96.343 109.13 96.343H110.043C111.351 96.343 112.393 96.6278 113.169 97.1974C113.946 97.767 114.334 98.5307 114.334 99.4886H111.48C111.48 99.178 111.351 98.9385 111.092 98.7702C110.846 98.6019 110.496 98.5178 110.043 98.5178H109.13C108.677 98.5178 108.334 98.6019 108.101 98.7702C107.868 98.9385 107.752 99.1715 107.752 99.4692C107.752 99.767 107.862 99.9676 108.082 100.071C108.315 100.175 108.639 100.252 109.053 100.304L111.383 100.595C112.431 100.725 113.221 101.094 113.752 101.702C114.283 102.311 114.548 103.113 114.548 104.11C114.548 105.159 114.173 105.974 113.422 106.557C112.671 107.126 111.564 107.411 110.101 107.411H109.247Z" fill="black"/>
<path d="M93.507 110.712V96.5372H96.3225V98.7702H97.0021L96.0506 100.227C96.0506 99.0356 96.3354 98.0906 96.905 97.3916C97.4875 96.6925 98.2707 96.343 99.2545 96.343C99.9406 96.343 100.543 96.5242 101.06 96.8867C101.578 97.2362 101.979 97.7217 102.264 98.343C102.562 98.9644 102.711 99.6893 102.711 100.518V103.236C102.711 104.052 102.562 104.777 102.264 105.411C101.979 106.032 101.578 106.524 101.06 106.887C100.543 107.236 99.9406 107.411 99.2545 107.411C98.2707 107.411 97.4875 107.061 96.905 106.362C96.3354 105.663 96.0506 104.718 96.0506 103.527L97.0021 105.003H96.3225L96.4196 107.799V110.712H93.507ZM98.1283 104.887C98.6591 104.887 99.0668 104.738 99.3516 104.44C99.6493 104.129 99.7982 103.696 99.7982 103.139V100.615C99.7982 100.045 99.6493 99.6116 99.3516 99.3139C99.0668 99.0162 98.6591 98.8673 98.1283 98.8673C97.5717 98.8673 97.1445 99.0291 96.8468 99.3527C96.562 99.6634 96.4196 100.116 96.4196 100.712V103.042C96.4196 103.638 96.562 104.097 96.8468 104.421C97.1445 104.731 97.5717 104.887 98.1283 104.887Z" fill="black"/>
<path d="M81.9418 107.217V104.596H85.4757V99.1586H82.3301V96.5373H88.3884V104.596H91.4563V107.217H81.9418ZM86.7961 94.848C86.2654 94.848 85.8382 94.712 85.5146 94.4402C85.2039 94.1684 85.0486 93.7994 85.0486 93.3334C85.0486 92.8674 85.2039 92.4985 85.5146 92.2266C85.8382 91.9548 86.2654 91.8188 86.7961 91.8188C87.3269 91.8188 87.7476 91.9548 88.0583 92.2266C88.3819 92.4985 88.5437 92.8674 88.5437 93.3334C88.5437 93.7994 88.3819 94.1684 88.0583 94.4402C87.7476 94.712 87.3269 94.848 86.7961 94.848Z" fill="black"/>
<path d="M82.2007 113.689H138.835V116.926H82.2007V113.689Z" fill="#FF3F00"/>
<path opacity="0.4" d="M82.2007 113.689H85.4369V116.926H82.2007V113.689Z" fill="black"/>
<path opacity="0.4" d="M135.599 113.689H138.835V116.926H135.599V113.689Z" fill="black"/>
<path d="M82.8608 130C82.2653 130 81.7389 129.875 81.2815 129.625C80.8327 129.366 80.4789 129.012 80.22 128.563C79.9697 128.114 79.8446 127.592 79.8446 126.997C79.8446 126.583 79.918 126.164 80.0647 125.741C80.22 125.31 80.4271 124.87 80.686 124.421L82.9385 120.421H84.0776L81.6698 124.576L81.7087 124.602C81.8295 124.455 82.0107 124.334 82.2524 124.24C82.5026 124.136 82.7831 124.084 83.0938 124.084C83.6461 124.084 84.1251 124.209 84.5307 124.46C84.9449 124.701 85.2685 125.038 85.5016 125.469C85.7346 125.901 85.8511 126.401 85.8511 126.971C85.8511 127.566 85.7216 128.093 85.4627 128.55C85.2125 129.008 84.8629 129.366 84.4142 129.625C83.9741 129.875 83.4563 130 82.8608 130ZM82.8478 129.081C83.2448 129.081 83.59 128.995 83.8834 128.822C84.1769 128.649 84.4056 128.408 84.5695 128.097C84.7421 127.778 84.8284 127.411 84.8284 126.997C84.8284 126.583 84.7421 126.22 84.5695 125.909C84.4056 125.59 84.1769 125.344 83.8834 125.172C83.59 124.99 83.2448 124.9 82.8478 124.9C82.4595 124.9 82.1143 124.99 81.8122 125.172C81.5188 125.344 81.2858 125.59 81.1132 125.909C80.9492 126.22 80.8673 126.583 80.8673 126.997C80.8673 127.411 80.9492 127.778 81.1132 128.097C81.2772 128.408 81.5102 128.649 81.8122 128.822C82.1143 128.995 82.4595 129.081 82.8478 129.081Z" fill="#FF3F00"/>
<path d="M138.092 129.871V128.939H140.681V121.314L138.118 123.23V122.052L140.319 120.421H141.704V128.939H143.84V129.871H138.092Z" fill="#FF3F00"/>
<path d="M130.33 129.871V128.939H132.919V121.314L130.356 123.23V122.052L132.557 120.421H133.942V128.939H136.078V129.871H130.33Z" fill="#FF3F00"/>
<path d="M143.689 109.266H157.674L157.281 94.1639H143.689V109.266Z" fill="#FF3F00"/>
<path d="M170.861 96.2919L172.826 98.2535C173.415 98.8427 174.371 98.8421 174.961 98.2535L178.424 94.7905L178.867 95.233C179.456 95.8223 180.412 95.8216 181.002 95.233L188.553 87.6817C189.143 87.092 189.143 86.1359 188.553 85.5461C187.964 84.9564 187.008 84.9564 186.418 85.5461L179.934 92.0296L166.968 79.0627L173.451 72.5793C174.041 71.9895 174.041 71.0335 173.451 70.4437C172.861 69.8539 171.905 69.8539 171.315 70.4437L163.764 77.9949C163.482 78.278 163.322 78.6627 163.322 79.0627C163.322 79.4628 163.481 79.8476 163.764 80.1305L164.207 80.573L160.744 84.0359C160.461 84.319 160.301 84.7037 160.301 85.1037C160.302 85.5038 160.461 85.8886 160.744 86.1715L162.074 87.5018L155.888 94.1593L155.968 94.8525L157.649 109.276L170.861 96.2919ZM165.239 86.3927L163.947 85.1037L166.342 82.7085L176.289 92.6549L173.893 95.0501L165.239 86.3927ZM159.051 95.1946L164.21 89.6374L168.726 94.1563L159.935 102.796L159.051 95.1946Z" fill="black"/>
</svg>
