<svg width="200" height="200" viewBox="0 0 200 200" fill="none" xmlns="http://www.w3.org/2000/svg">
<path d="M80.0714 58C87.2818 58 94.0684 59.8109 100 63.0017C86.8168 70.0935 77.8571 84.0021 77.8571 100C77.8571 115.998 86.8173 129.904 100 136.996C94.0681 140.187 87.2821 142 80.0714 142C56.836 142 38 123.196 38 100C38 76.804 56.836 58 80.0714 58Z" fill="#FF3F00" fill-opacity="0.3" stroke="#FFF5F2"/>
<path d="M100 63C113.098 70.0923 122 84.002 122 100.001C122 116 113.098 129.908 100 137C86.9024 129.908 78 116 78 100.001C78 84.002 86.9019 70.0923 100 63Z" fill="#FF3F00" fill-opacity="0.6" stroke="#FFF5F2"/>
<path d="M119.929 58C143.164 58 162 76.804 162 100C162 123.196 143.164 142 119.929 142C112.718 142 105.932 140.187 100 136.996C113.183 129.904 122.143 115.998 122.143 100C122.143 84.0021 113.183 70.0935 100 63.0017C105.932 59.8109 112.718 58 119.929 58Z" fill="#FF3F00" fill-opacity="0.3" stroke="#FFF5F2"/>
<path d="M141.71 92.18C141.659 92.408 141.615 92.6677 141.577 92.959C141.552 93.2503 141.526 93.491 141.501 93.681C141.425 94.3523 141.336 95.0553 141.235 95.79C141.134 96.512 141.001 97.2403 140.836 97.975C140.684 98.7097 140.488 99.4317 140.247 100.141C139.943 100.99 139.576 101.813 139.145 102.611C138.727 103.409 138.265 104.125 137.758 104.758C137.251 105.391 136.707 105.892 136.124 106.259C135.554 106.614 134.959 106.791 134.338 106.791C133.895 106.791 133.489 106.677 133.122 106.449C132.755 106.221 132.463 105.885 132.248 105.442C132.033 104.999 131.925 104.473 131.925 103.865C131.925 102.877 132.071 101.978 132.362 101.167C132.666 100.356 133.046 99.6343 133.502 99.001C133.857 98.4817 134.294 97.975 134.813 97.481C135.332 96.9743 135.928 96.512 136.599 96.094C137.283 95.676 138.037 95.3467 138.86 95.106C139.696 94.8527 140.608 94.726 141.596 94.726C142.369 94.726 143.097 94.8527 143.781 95.106C144.465 95.3593 145.073 95.7267 145.605 96.208C146.137 96.6767 146.555 97.2593 146.859 97.956C147.163 98.64 147.315 99.4253 147.315 100.312C147.315 101.313 147.226 102.237 147.049 103.086C146.872 103.935 146.593 104.676 146.213 105.309C145.846 105.93 145.371 106.411 144.788 106.753C144.218 107.095 143.534 107.266 142.736 107.266C141.837 107.266 141.121 107.051 140.589 106.62C140.057 106.189 139.791 105.588 139.791 104.815C139.791 104.372 139.911 103.96 140.152 103.58C140.405 103.187 140.754 102.871 141.197 102.63C141.653 102.389 142.172 102.269 142.755 102.269C143.477 102.269 144.142 102.377 144.75 102.592C145.371 102.807 145.934 103.086 146.441 103.428C146.96 103.757 147.416 104.112 147.809 104.492C148.214 104.872 148.563 105.233 148.854 105.575L147.923 106.734C147.682 106.43 147.385 106.094 147.03 105.727C146.675 105.347 146.283 104.986 145.852 104.644C145.421 104.289 144.946 103.998 144.427 103.77C143.92 103.542 143.376 103.428 142.793 103.428C142.236 103.428 141.811 103.561 141.52 103.827C141.229 104.093 141.083 104.378 141.083 104.682C141.083 105.062 141.222 105.372 141.501 105.613C141.78 105.841 142.172 105.955 142.679 105.955C143.262 105.955 143.756 105.803 144.161 105.499C144.566 105.182 144.889 104.758 145.13 104.226C145.383 103.681 145.567 103.08 145.681 102.421C145.795 101.75 145.852 101.066 145.852 100.369C145.852 99.7483 145.757 99.1783 145.567 98.659C145.377 98.127 145.092 97.6583 144.712 97.253C144.345 96.8477 143.889 96.5373 143.344 96.322C142.812 96.1067 142.198 95.999 141.501 95.999C140.475 95.999 139.531 96.1637 138.67 96.493C137.809 96.8223 137.042 97.2657 136.371 97.823C135.7 98.3803 135.123 99.0137 134.642 99.723C134.363 100.141 134.123 100.572 133.92 101.015C133.717 101.446 133.559 101.883 133.445 102.326C133.331 102.757 133.274 103.194 133.274 103.637C133.274 104.118 133.388 104.517 133.616 104.834C133.857 105.138 134.116 105.29 134.395 105.29C134.788 105.29 135.193 105.144 135.611 104.853C136.029 104.562 136.434 104.156 136.827 103.637C137.232 103.118 137.612 102.522 137.967 101.851C138.334 101.18 138.657 100.458 138.936 99.685C139.151 99.0643 139.335 98.393 139.487 97.671C139.639 96.949 139.759 96.2397 139.848 95.543C139.937 94.8463 140 94.232 140.038 93.7C140.063 93.3707 140.07 93.0983 140.057 92.883C140.057 92.655 140.044 92.4017 140.019 92.123L141.71 92.18ZM134.414 93.833C134.528 94.3777 134.674 94.9477 134.851 95.543C135.041 96.1383 135.237 96.721 135.44 97.291C135.655 97.861 135.864 98.3867 136.067 98.868C136.27 99.3493 136.447 99.761 136.599 100.103C136.878 100.673 137.169 101.218 137.473 101.737C137.79 102.256 138.119 102.731 138.461 103.162L137.568 104.321C137.365 104.08 137.144 103.802 136.903 103.485C136.675 103.156 136.447 102.801 136.219 102.421C136.004 102.041 135.795 101.648 135.592 101.243C135.402 100.825 135.187 100.331 134.946 99.761C134.718 99.1783 134.49 98.5893 134.262 97.994C134.047 97.386 133.857 96.8477 133.692 96.379C133.629 96.151 133.565 95.9357 133.502 95.733C133.439 95.5303 133.363 95.3213 133.274 95.106C133.198 94.8907 133.109 94.6563 133.008 94.403L134.414 93.833Z" fill="black"/>
<path d="M96.314 92.693H108.531V93.89H96.314V92.693ZM96.105 103.523H108.664V104.701H96.105V103.523ZM98.632 96.74V98.735H106.042V96.74H98.632ZM97.359 95.676H107.372V99.799H97.359V95.676ZM96.903 101.072H107.866V102.212H96.903V101.072ZM101.577 96.208H102.945V101.148C102.945 101.705 102.901 102.263 102.812 102.82C102.723 103.377 102.552 103.928 102.299 104.473C102.058 105.005 101.697 105.518 101.216 106.012C100.747 106.493 100.133 106.949 99.373 107.38C98.613 107.823 97.6693 108.216 96.542 108.558C96.4913 108.444 96.4153 108.317 96.314 108.178C96.2253 108.051 96.124 107.918 96.01 107.779C95.9087 107.652 95.8073 107.545 95.706 107.456C96.77 107.165 97.6567 106.835 98.366 106.468C99.0753 106.101 99.6453 105.702 100.076 105.271C100.507 104.84 100.83 104.397 101.045 103.941C101.26 103.485 101.4 103.023 101.463 102.554C101.539 102.073 101.577 101.604 101.577 101.148V96.208ZM103.249 103.922C103.692 104.821 104.395 105.562 105.358 106.145C106.333 106.715 107.486 107.114 108.816 107.342C108.715 107.431 108.607 107.545 108.493 107.684C108.379 107.823 108.271 107.969 108.17 108.121C108.069 108.273 107.986 108.412 107.923 108.539C106.517 108.222 105.314 107.703 104.313 106.981C103.312 106.259 102.559 105.347 102.052 104.245L103.249 103.922ZM99.373 91.04H100.703V95.258H99.373V91.04ZM103.838 91.04H105.187V95.258H103.838V91.04ZM92.191 92.237L93.008 91.211C93.388 91.3757 93.787 91.5783 94.205 91.819C94.623 92.047 95.0093 92.2877 95.364 92.541C95.7313 92.7817 96.029 93.0097 96.257 93.225L95.421 94.403C95.193 94.175 94.8953 93.928 94.528 93.662C94.1733 93.396 93.7933 93.1427 93.388 92.902C92.9827 92.6487 92.5837 92.427 92.191 92.237ZM91.222 97.367L92.02 96.303C92.4 96.455 92.799 96.6387 93.217 96.854C93.635 97.0693 94.0277 97.2973 94.395 97.538C94.775 97.766 95.079 97.9877 95.307 98.203L94.49 99.362C94.262 99.1467 93.9643 98.9187 93.597 98.678C93.2297 98.4373 92.837 98.203 92.419 97.975C92.0137 97.7343 91.6147 97.5317 91.222 97.367ZM91.735 107.399C92.039 106.905 92.3683 106.322 92.723 105.651C93.0777 104.967 93.4387 104.245 93.806 103.485C94.1733 102.725 94.5153 101.99 94.832 101.281L95.953 102.136C95.6743 102.795 95.364 103.485 95.022 104.207C94.6927 104.929 94.3507 105.638 93.996 106.335C93.654 107.032 93.3183 107.678 92.989 108.273L91.735 107.399Z" fill="black"/>
<path d="M66.4717 91.306H68.0487V104.188H66.4717V91.306ZM67.5547 96.949H70.5757V98.26H67.5547V96.949ZM54.7487 93.396H64.8947V94.669H54.7487V93.396ZM59.8217 95.6C60.6324 95.6 61.3481 95.7393 61.9687 96.018C62.5894 96.284 63.0707 96.6577 63.4127 97.139C63.7547 97.6077 63.9257 98.165 63.9257 98.811C63.9257 99.457 63.7547 100.021 63.4127 100.502C63.0707 100.971 62.5894 101.338 61.9687 101.604C61.3481 101.87 60.6324 102.003 59.8217 102.003C59.0111 102.003 58.2954 101.87 57.6747 101.604C57.0541 101.338 56.5664 100.971 56.2117 100.502C55.8697 100.021 55.6987 99.457 55.6987 98.811C55.6987 98.165 55.8697 97.6077 56.2117 97.139C56.5664 96.6577 57.0541 96.284 57.6747 96.018C58.2954 95.7393 59.0111 95.6 59.8217 95.6ZM59.8217 96.835C59.0491 96.835 58.4221 97.0187 57.9407 97.386C57.4594 97.7407 57.2187 98.2157 57.2187 98.811C57.2187 99.4063 57.4594 99.8813 57.9407 100.236C58.4221 100.591 59.0491 100.768 59.8217 100.768C60.6071 100.768 61.2341 100.591 61.7027 100.236C62.1841 99.8813 62.4247 99.4063 62.4247 98.811C62.4247 98.2157 62.1841 97.7407 61.7027 97.386C61.2341 97.0187 60.6071 96.835 59.8217 96.835ZM59.0427 91.306H60.6197V94.042H59.0427V91.306ZM57.3517 106.81H68.8087V108.102H57.3517V106.81ZM57.3517 103.162H58.9097V107.342H57.3517V103.162Z" fill="black"/>
</svg>
