<svg width="200" height="200" viewBox="0 0 200 200" fill="none" xmlns="http://www.w3.org/2000/svg">
<path d="M149.661 118.8V117H151.821C153.074 117 154.101 116.627 154.901 115.88C155.728 115.133 156.034 114.107 155.821 112.8L154.541 104.92C154.381 103.907 154.474 103.027 154.821 102.28C155.168 101.507 155.688 100.907 156.381 100.48C157.074 100.053 157.861 99.84 158.741 99.84V100.12C157.408 100.12 156.314 99.6666 155.461 98.76C154.608 97.8266 154.301 96.6133 154.541 95.12L155.821 87.2C156.034 85.8933 155.728 84.8666 154.901 84.12C154.101 83.3733 153.074 83 151.821 83H149.661V81.2H151.821C153.101 81.2 154.221 81.44 155.181 81.92C156.168 82.4 156.901 83.0933 157.381 84C157.888 84.88 158.034 85.9466 157.821 87.2L156.541 95.12C156.301 96.5866 156.501 97.6266 157.141 98.24C157.781 98.8266 158.914 99.12 160.541 99.12H165.661V100.96H160.541C158.834 100.96 157.674 101.267 157.061 101.88C156.474 102.493 156.301 103.507 156.541 104.92L157.821 112.8C158.034 114.053 157.888 115.12 157.381 116C156.901 116.907 156.168 117.6 155.181 118.08C154.221 118.56 153.101 118.8 151.821 118.8H149.661Z" fill="black"/>
<path d="M144.677 118.8C143.397 118.8 142.263 118.56 141.277 118.08C140.29 117.6 139.557 116.907 139.077 116C138.597 115.12 138.463 114.053 138.677 112.8L140.037 104.92C140.277 103.507 140.103 102.493 139.517 101.88C138.93 101.267 137.77 100.96 136.037 100.96H130.877V99.12H136.037C137.69 99.12 138.837 98.8266 139.477 98.24C140.117 97.6266 140.303 96.5866 140.037 95.12L138.677 87.2C138.463 85.9466 138.597 84.88 139.077 84C139.557 83.0933 140.29 82.4 141.277 81.92C142.263 81.44 143.397 81.2 144.677 81.2H146.877V83H144.677C143.45 83 142.423 83.3733 141.597 84.12C140.77 84.8666 140.463 85.8933 140.677 87.2L142.037 95.12C142.223 96.1066 142.143 96.9866 141.797 97.76C141.45 98.5066 140.93 99.0933 140.237 99.52C139.543 99.92 138.743 100.12 137.837 100.12V99.84C138.743 99.84 139.543 100.053 140.237 100.48C140.93 100.907 141.45 101.507 141.797 102.28C142.143 103.027 142.223 103.907 142.037 104.92L140.677 112.8C140.463 114.107 140.77 115.133 141.597 115.88C142.423 116.627 143.45 117 144.677 117H146.877V118.8H144.677Z" fill="black"/>
<path d="M103.708 97.5599V95.7599H120.108V97.5599H103.708ZM103.708 106.6V104.8H120.108V106.6H103.708Z" fill="#FF3F00"/>
<path d="M55.3391 118.8L57.0591 114.28L34.3391 102.12V100.28L51.1391 91.2V93.32L39.4991 99.48C38.9391 99.7733 38.3524 100.08 37.7391 100.4C37.0991 100.72 36.5924 100.973 36.2191 101.16C36.5924 101.347 37.0991 101.6 37.7391 101.92C38.3524 102.24 38.9391 102.547 39.4991 102.84L57.6991 112.56L69.5791 81.2H71.7391L69.2991 87.68L92.7391 100.28V102.12L75.9391 111.2V109.08L87.5791 102.92C88.1391 102.627 88.7258 102.32 89.3391 102C89.9791 101.68 90.4858 101.427 90.8591 101.24C90.4858 101.053 89.9791 100.8 89.3391 100.48C88.7258 100.16 88.1391 99.8533 87.5791 99.56L68.6191 89.4L57.4991 118.8H55.3391Z" fill="black"/>
</svg>
