<svg width="132" height="152" viewBox="0 0 132 152" fill="none" xmlns="http://www.w3.org/2000/svg">
<circle cx="62.4319" cy="92.1309" r="11.3821" fill="black"/>
<path d="M48.4521 68.7223C52.3419 69.9405 57.0819 70.6556 62.1966 70.6556C67.3112 70.6556 72.0512 69.9405 75.941 68.7223C73.3324 71.7279 68.1561 73.447 62.1966 73.447C56.237 73.447 51.0608 71.7279 48.4521 68.7223Z" fill="black"/>
<path d="M52.7472 67.8633C55.4215 69.2094 58.6802 71.0846 62.1966 71.0846C65.7129 71.0846 68.9717 69.2094 71.6459 67.8633C69.8524 71.1845 66.2938 73.447 62.1966 73.447C58.0994 73.447 54.5407 71.1845 52.7472 67.8633Z" fill="black"/>
<path d="M57.9014 65.7157C59.117 67.7867 60.5982 69.8574 62.1966 69.8574C63.7949 69.8574 65.2762 67.7867 66.4917 65.7157C65.6765 70.8253 64.0589 74.306 62.1966 74.306C60.3342 74.306 58.7166 70.8253 57.9014 65.7157Z" fill="black"/>
<path d="M62.1966 72.5879L62.1966 85.4733" stroke="black" stroke-width="2"/>
<path d="M103.08 2.0253C105.446 3.65755 108.49 5.12832 111.935 6.19555C115.381 7.26278 118.723 7.77011 121.597 7.76115C119.213 9.24144 115.367 9.31935 111.353 8.07583C107.338 6.83231 104.21 4.59424 103.08 2.0253Z" fill="#FF3F00"/>
<path d="M106.153 2.34287C107.673 3.80765 109.477 5.75081 111.846 6.48453C114.215 7.21825 116.801 6.63504 118.883 6.28627C116.982 8.14927 114.113 8.93075 111.353 8.07583C108.593 7.22091 106.668 4.95432 106.153 2.34287Z" fill="#FF3F00"/>
<path d="M110.073 1.9717C110.46 3.62039 111.025 5.32437 112.102 5.65788C113.179 5.99138 114.608 4.90556 115.859 3.76416C114.244 7.03594 112.428 9.04309 111.174 8.65449C109.919 8.26589 109.556 5.58369 110.073 1.9717Z" fill="#FF3F00"/>
<path d="M86.6966 101.824C82.8336 103.125 78.5785 105.333 74.4407 108.339C70.3028 111.345 66.8884 114.71 64.4575 117.982C64.8014 114.017 67.9786 109.584 72.8 106.081C77.6213 102.578 82.8195 100.926 86.6966 101.824Z" fill="black"/>
<path d="M83.7266 105.044C80.7719 105.527 77.0333 105.925 74.1885 107.992C71.3437 110.059 69.8096 113.491 68.4373 116.152C67.9361 112.411 69.4853 108.489 72.8 106.081C76.1147 103.673 80.3235 103.411 83.7266 105.044Z" fill="black"/>
<path d="M80.8191 109.811C78.6184 108.85 76.2029 108.045 74.9098 108.985C73.6168 109.924 73.6356 112.47 73.8694 114.86C71.5256 110.247 70.7884 106.481 72.295 105.386C73.8017 104.291 77.1563 106.156 80.8191 109.811Z" fill="black"/>
<path d="M73.3049 106.776L65.731 96.3513" stroke="black" stroke-width="2"/>
<path d="M59.9356 117.982C57.5047 114.71 54.0903 111.345 49.9524 108.339C45.8146 105.333 41.5595 103.125 37.6965 101.824C41.5736 100.926 46.7718 102.578 51.5931 106.081C56.4145 109.584 59.5918 114.017 59.9356 117.982Z" fill="black"/>
<path d="M55.9558 116.152C54.5835 113.491 53.0494 110.059 50.2046 107.992C47.3598 105.925 43.6212 105.527 40.6665 105.044C44.0696 103.411 48.2784 103.673 51.5931 106.081C54.9078 108.489 56.457 112.411 55.9558 116.152Z" fill="black"/>
<path d="M50.5237 114.86C50.7576 112.47 50.7764 109.924 49.4833 108.985C48.1902 108.045 45.7747 108.85 43.574 109.811C47.2368 106.156 50.5914 104.291 52.0981 105.386C53.6048 106.481 52.8675 110.247 50.5237 114.86Z" fill="black"/>
<path d="M51.0882 106.776L58.6621 96.3513" stroke="black" stroke-width="2"/>
<path d="M36.2991 97.5238C38.6597 94.2009 40.8046 89.9138 42.3851 85.0495C43.9657 80.1851 44.7503 75.4561 44.7937 71.3803C46.8461 74.79 46.8815 80.2442 45.0398 85.912C43.1982 91.5799 39.9638 95.9716 36.2991 97.5238Z" fill="black"/>
<path d="M36.8094 93.1734C38.9161 91.0461 41.7065 88.5263 42.7931 85.182C43.8797 81.8378 43.1033 78.1591 42.6494 75.1997C45.2539 77.9317 46.306 82.0154 45.0398 85.912C43.7737 89.8087 40.5223 92.4941 36.8094 93.1734Z" fill="black"/>
<path d="M36.3597 87.6079C38.7049 87.0918 41.1321 86.3229 41.626 84.8028C42.1199 83.2827 40.6082 81.2341 39.0143 79.438C43.6218 81.7923 46.4323 84.4063 45.8568 86.1775C45.2813 87.9487 41.4711 88.4115 36.3597 87.6079Z" fill="black"/>
<path d="M44.2228 85.6466L56.4776 89.6284" stroke="black" stroke-width="2"/>
<path d="M45.3853 35.2911C50.0525 36.712 55.7398 37.5462 61.8766 37.5462C68.0134 37.5462 73.7007 36.712 78.3679 35.2911C75.2379 38.7969 69.0271 40.8021 61.8766 40.8021C54.726 40.8021 48.5153 38.7969 45.3853 35.2911Z" fill="black"/>
<path d="M50.5388 34.2891C53.7475 35.8592 57.6575 38.0466 61.8766 38.0466C66.0956 38.0466 70.0057 35.8592 73.2143 34.2891C71.0625 38.163 66.7926 40.8021 61.8766 40.8021C56.9606 40.8021 52.6907 38.163 50.5388 34.2891Z" fill="black"/>
<path d="M56.7231 31.7841C58.1816 34.1997 59.9588 36.6151 61.8766 36.6151C63.7943 36.6151 65.5716 34.1997 67.0301 31.7841C66.052 37.744 64.1111 41.8041 61.8766 41.8041C59.642 41.8041 57.7012 37.744 56.7231 31.7841Z" fill="black"/>
<path d="M61.8766 39.2991L61.8766 81.0491" stroke="black" stroke-width="2"/>
<path d="M102.858 20.4473C105.798 24.3402 109.909 28.358 114.874 31.9651C119.839 35.5722 124.93 38.2403 129.541 39.834C124.948 40.8305 118.745 38.8021 112.96 34.5992C107.175 30.3962 103.329 25.1234 102.858 20.4473Z" fill="#FF3F00"/>
<path d="M107.616 22.6659C109.289 25.8222 111.166 29.89 114.58 32.3699C117.993 34.8498 122.442 35.3785 125.961 35.9942C121.943 37.8635 116.937 37.4887 112.96 34.5992C108.983 31.7096 107.08 27.0648 107.616 22.6659Z" fill="#FF3F00"/>
<path d="M114.091 24.2743C113.851 27.0859 113.869 30.0846 115.421 31.2119C116.972 32.3391 119.83 31.4296 122.43 30.3326C118.135 34.5794 114.179 36.7232 112.371 35.4098C110.563 34.0964 111.379 29.6709 114.091 24.2743Z" fill="#FF3F00"/>
<path d="M110.226 58.4371C110.317 63.315 111.281 68.9817 113.177 74.8181C115.073 80.6546 117.624 85.8058 120.418 89.8054C116.116 87.9119 112.29 82.6248 110.081 75.8242C107.871 69.0237 107.859 62.4973 110.226 58.4371Z" fill="black"/>
<path d="M112.771 63.0288C112.269 66.5656 111.397 70.9602 112.701 74.9728C114.005 78.9853 117.293 82.028 119.778 84.5945C115.429 83.745 111.6 80.4996 110.081 75.8242C108.561 71.1488 109.752 66.2725 112.771 63.0288Z" fill="black"/>
<path d="M117.065 68.1362C115.218 70.2698 113.47 72.7065 114.063 74.5304C114.655 76.3543 117.502 77.2982 120.25 77.9388C114.279 78.8503 109.818 78.2591 109.128 76.1339C108.437 74.0087 111.699 70.9082 117.065 68.1362Z" fill="black"/>
<path d="M111.51 75.3597L71.8034 88.2612" stroke="black" stroke-width="2"/>
<path d="M120.418 93.168C117.624 97.1676 115.073 102.319 113.177 108.155C111.281 113.992 110.317 119.658 110.226 124.536C107.859 120.476 107.871 113.95 110.081 107.149C112.29 100.349 116.116 95.0614 120.418 93.168Z" fill="black"/>
<path d="M119.778 98.3789C117.294 100.945 114.005 103.988 112.701 108.001C111.397 112.013 112.269 116.408 112.771 119.945C109.752 116.701 108.561 111.825 110.081 107.149C111.6 102.474 115.429 99.2283 119.778 98.3789Z" fill="black"/>
<path d="M120.25 105.035C117.502 105.675 114.655 106.619 114.063 108.443C113.47 110.267 115.218 112.704 117.065 114.837C111.699 112.065 108.437 108.965 109.128 106.839C109.818 104.714 114.279 104.123 120.25 105.035Z" fill="black"/>
<path d="M111.51 107.614L71.8034 94.7121" stroke="black" stroke-width="2"/>
<path d="M108.249 127.257C103.638 128.85 98.5468 131.518 93.5821 135.126C88.6173 138.733 84.5065 142.75 81.5659 146.643C82.0374 141.967 85.8834 136.694 91.6683 132.491C97.4532 128.288 103.656 126.26 108.249 127.257Z" fill="black"/>
<path d="M104.669 131.096C101.15 131.712 96.7012 132.241 93.2879 134.721C89.8746 137.201 87.9971 141.268 86.3241 144.425C85.788 140.026 87.6912 135.381 91.6683 132.491C95.6454 129.602 100.651 129.227 104.669 131.096Z" fill="black"/>
<path d="M101.138 136.758C98.5384 135.661 95.6808 134.752 94.1293 135.879C92.5778 137.006 92.5597 140.005 92.7997 142.816C90.0878 137.42 89.2715 132.994 91.0793 131.681C92.8871 130.367 96.8437 132.511 101.138 136.758Z" fill="black"/>
<path d="M92.5518 133.707L68.0117 99.9309" stroke="black" stroke-width="2"/>
<path d="M78.3679 147.682C73.7008 146.261 68.0135 145.427 61.8766 145.427C55.7398 145.427 50.0525 146.261 45.3854 147.682C48.5154 144.177 54.7261 142.171 61.8766 142.171C69.0272 142.171 75.2379 144.177 78.3679 147.682Z" fill="black"/>
<path d="M73.2144 148.684C70.0057 147.114 66.0957 144.927 61.8766 144.927C57.6576 144.927 53.7476 147.114 50.5389 148.684C52.6908 144.81 56.9606 142.171 61.8766 142.171C66.7927 142.171 71.0625 144.81 73.2144 148.684Z" fill="black"/>
<path d="M67.0302 151.189C65.5717 148.774 63.7944 146.358 61.8766 146.358C59.9589 146.358 58.1816 148.774 56.7231 151.189C57.7013 145.229 59.6421 141.169 61.8766 141.169C64.1112 141.169 66.052 145.229 67.0302 151.189Z" fill="black"/>
<path d="M61.8766 143.674L61.8766 101.924" stroke="black" stroke-width="2"/>
<path d="M42.1874 146.643C39.2468 142.75 35.136 138.733 30.1712 135.125C25.2064 131.518 20.115 128.85 15.504 127.257C20.0969 126.26 26.3001 128.288 32.085 132.491C37.8699 136.694 41.7158 141.967 42.1874 146.643Z" fill="black"/>
<path d="M37.4292 144.425C35.7562 141.268 33.8786 137.201 30.4653 134.721C27.052 132.241 22.6031 131.712 19.0843 131.096C23.1023 129.227 28.1078 129.602 32.085 132.491C36.0621 135.381 37.9653 140.026 37.4292 144.425Z" fill="black"/>
<path d="M30.9536 142.816C31.1936 140.005 31.1754 137.006 29.624 135.879C28.0725 134.751 25.2149 135.661 22.615 136.758C26.9095 132.511 30.8661 130.367 32.6739 131.681C34.4817 132.994 33.6655 137.42 30.9536 142.816Z" fill="black"/>
<path d="M31.2015 133.707L55.7416 99.9309" stroke="black" stroke-width="2"/>
<path d="M13.5275 124.536C13.4367 119.658 12.4725 113.992 10.5761 108.155C8.67977 102.319 6.12898 97.1676 3.33534 93.168C7.63679 95.0615 11.4631 100.349 13.6727 107.149C15.8823 113.95 15.8945 120.476 13.5275 124.536Z" fill="black"/>
<path d="M10.982 119.945C11.4838 116.408 12.3558 112.013 11.0521 108.001C9.74829 103.988 6.45976 100.945 3.9749 98.3789C8.32424 99.2284 12.1536 102.474 13.6727 107.149C15.1918 111.825 14.0014 116.701 10.982 119.945Z" fill="black"/>
<path d="M6.68858 114.837C8.53532 112.704 10.2833 110.267 9.69068 108.443C9.09806 106.619 6.25166 105.675 3.50354 105.035C9.47406 104.123 13.9351 104.714 14.6257 106.84C15.3162 108.965 12.0546 112.065 6.68858 114.837Z" fill="black"/>
<path d="M12.2432 107.614L51.9499 94.7122" stroke="black" stroke-width="2"/>
<path d="M3.3353 89.8054C6.12895 85.8058 8.67974 80.6546 10.5761 74.8181C12.4725 68.9817 13.4366 63.315 13.5275 58.4371C15.8945 62.4973 15.8823 69.0237 13.6727 75.8243C11.463 82.6248 7.63676 87.912 3.3353 89.8054Z" fill="black"/>
<path d="M3.97487 84.5945C6.45973 82.0281 9.74826 78.9853 11.052 74.9728C12.3558 70.9602 11.4838 66.5656 10.982 63.0288C14.0014 66.2725 15.1918 71.1489 13.6727 75.8243C12.1535 80.4997 8.32421 83.745 3.97487 84.5945Z" fill="black"/>
<path d="M3.5035 77.9388C6.25163 77.2982 9.09803 76.3543 9.69065 74.5304C10.2833 72.7065 8.53529 70.2698 6.68855 68.1363C12.0546 70.9082 15.3161 74.0087 14.6256 76.1339C13.9351 78.2591 9.47402 78.8503 3.5035 77.9388Z" fill="black"/>
<path d="M12.2432 75.3599L51.9499 88.2613" stroke="black" stroke-width="2"/>
<path d="M15.5039 55.7167C20.1149 54.123 25.2063 51.455 30.1711 47.8478C35.1359 44.2407 39.2467 40.223 42.1873 36.3301C41.7158 41.0061 37.8698 46.2789 32.0849 50.4819C26.3 54.6849 20.0968 56.7132 15.5039 55.7167Z" fill="black"/>
<path d="M19.0842 51.8769C22.603 51.2612 27.0519 50.7326 30.4652 48.2527C33.8785 45.7728 35.7561 41.7049 37.4291 38.5486C37.9652 42.9476 36.062 47.5924 32.0849 50.4819C28.1077 53.3715 23.1022 53.7462 19.0842 51.8769Z" fill="black"/>
<path d="M22.6149 46.2154C25.2148 47.3124 28.0724 48.2218 29.6239 47.0946C31.1754 45.9674 31.1935 42.9686 30.9535 40.157C33.6654 45.5537 34.4816 49.9791 32.6738 51.2926C30.8661 52.606 26.9094 50.4621 22.6149 46.2154Z" fill="black"/>
<path d="M31.2014 49.266L55.7415 83.0425" stroke="black" stroke-width="2"/>
</svg>
