<svg width="200" height="200" viewBox="0 0 200 200" fill="none" xmlns="http://www.w3.org/2000/svg">
<path d="M128.588 113.63L63.588 113.63" stroke="black" stroke-width="2"/>
<path d="M128.588 80.63L101.588 80.63" stroke="black" stroke-width="2"/>
<path d="M113.588 64.63L113.588 97.63" stroke="black" stroke-width="2"/>
<path d="M113.588 129.63L113.588 161.63" stroke="black" stroke-width="2"/>
<path d="M89.588 97.63L89.588 129.63" stroke="black" stroke-width="2"/>
<path d="M128.588 145.63L101.588 145.63C101.588 107.749 101.588 86.5109 101.588 48.63L128.588 48.63" stroke="black" stroke-width="2"/>
<ellipse cx="128.088" cy="49.13" rx="6.5" ry="6.5" transform="rotate(90 128.088 49.13)" fill="#FF3F00"/>
<ellipse cx="113.5" cy="65.21" rx="5" ry="5" transform="rotate(90 113.5 65.21)" fill="#FF3F00"/>
<ellipse cx="128.088" cy="81.13" rx="6.5" ry="6.5" transform="rotate(90 128.088 81.13)" fill="#FF3F00"/>
<ellipse cx="113.5" cy="98" rx="5" ry="5" transform="rotate(90 113.5 98)" fill="#FF3F00"/>
<ellipse cx="89.5" cy="97.21" rx="5" ry="5" transform="rotate(90 89.5 97.21)" fill="#FF3F00"/>
<ellipse cx="128.088" cy="113.13" rx="6.5" ry="6.5" transform="rotate(90 128.088 113.13)" fill="#FF3F00"/>
<ellipse cx="113.5" cy="129.21" rx="5" ry="5" transform="rotate(90 113.5 129.21)" fill="#FF3F00"/>
<ellipse cx="89.5" cy="130" rx="5" ry="5" transform="rotate(90 89.5 130)" fill="#FF3F00"/>
<ellipse cx="64.088" cy="113.13" rx="6.5" ry="6.5" transform="rotate(90 64.088 113.13)" fill="#FF3F00"/>
<ellipse cx="128.088" cy="145.13" rx="6.5" ry="6.5" transform="rotate(90 128.088 145.13)" fill="#FF3F00"/>
<ellipse cx="113.5" cy="161.21" rx="5" ry="5" transform="rotate(90 113.5 161.21)" fill="#FF3F00"/>
<path d="M161.489 39.63V33.79H162.121V35.166V36.038H162.273L162.105 36.27C162.105 35.918 162.212 35.6434 162.425 35.446C162.644 35.2487 162.94 35.15 163.313 35.15C163.75 35.15 164.1 35.2887 164.361 35.566C164.622 35.838 164.753 36.2087 164.753 36.678V39.63H164.121V36.782C164.121 36.43 164.033 36.1607 163.857 35.974C163.681 35.782 163.441 35.686 163.137 35.686C162.822 35.686 162.574 35.7847 162.393 35.982C162.212 36.1794 162.121 36.454 162.121 36.806V39.63H161.489Z" fill="black"/>
<path d="M156.692 41.07V35.23H157.324V36.046H157.468L157.3 36.27C157.3 35.9234 157.412 35.6514 157.636 35.454C157.865 35.2514 158.164 35.15 158.532 35.15C158.825 35.15 159.079 35.2167 159.292 35.35C159.511 35.478 159.679 35.6647 159.796 35.91C159.919 36.15 159.98 36.438 159.98 36.774V38.078C159.98 38.414 159.921 38.7047 159.804 38.95C159.687 39.19 159.519 39.3767 159.3 39.51C159.087 39.6434 158.831 39.71 158.532 39.71C158.164 39.71 157.865 39.6087 157.636 39.406C157.412 39.2034 157.3 38.9314 157.3 38.59L157.468 38.814H157.316L157.324 39.75V41.07H156.692ZM158.332 39.158C158.652 39.158 158.9 39.07 159.076 38.894C159.257 38.718 159.348 38.446 159.348 38.078V36.774C159.348 36.406 159.257 36.1367 159.076 35.966C158.9 35.79 158.652 35.702 158.332 35.702C158.023 35.702 157.777 35.8007 157.596 35.998C157.415 36.19 157.324 36.4594 157.324 36.806V38.054C157.324 38.4007 157.415 38.6727 157.596 38.87C157.777 39.062 158.023 39.158 158.332 39.158Z" fill="black"/>
<path d="M153.167 39.71C152.714 39.71 152.354 39.5847 152.087 39.334C151.826 39.078 151.695 38.7474 151.695 38.342C151.695 38.0754 151.754 37.8434 151.871 37.646C151.989 37.4434 152.154 37.286 152.367 37.174C152.586 37.0567 152.834 36.998 153.111 36.998H154.511V36.63C154.511 36.3207 154.429 36.0887 154.263 35.934C154.098 35.7794 153.855 35.702 153.535 35.702C153.242 35.702 153.005 35.7607 152.823 35.878C152.642 35.9954 152.546 36.1527 152.535 36.35H151.903C151.93 35.998 152.087 35.71 152.375 35.486C152.669 35.262 153.055 35.15 153.535 35.15C154.053 35.15 154.45 35.278 154.727 35.534C155.005 35.79 155.143 36.15 155.143 36.614V39.63H154.519V38.806H154.407L154.527 38.622C154.527 38.8407 154.471 39.0327 154.359 39.198C154.253 39.358 154.095 39.4834 153.887 39.574C153.685 39.6647 153.445 39.71 153.167 39.71ZM153.327 39.166C153.69 39.166 153.978 39.078 154.191 38.902C154.405 38.7207 154.511 38.4754 154.511 38.166V37.502H153.167C152.922 37.502 152.722 37.5767 152.567 37.726C152.413 37.8754 152.335 38.0727 152.335 38.318C152.335 38.574 152.423 38.7794 152.599 38.934C152.775 39.0887 153.018 39.166 153.327 39.166Z" fill="black"/>
<path d="M147.258 39.63V35.23H147.898V36.046H148.034L147.874 36.31C147.874 35.9527 147.981 35.67 148.194 35.462C148.408 35.254 148.704 35.15 149.082 35.15C149.546 35.15 149.901 35.2887 150.146 35.566C150.392 35.838 150.514 36.2247 150.514 36.726V37.11H149.882V36.726C149.882 36.3847 149.797 36.1287 149.626 35.958C149.461 35.7874 149.218 35.702 148.898 35.702C148.573 35.702 148.325 35.798 148.154 35.99C147.984 36.1767 147.898 36.4487 147.898 36.806V39.63H147.258Z" fill="black"/>
<path d="M142.838 41.07V40.494H144.062C144.328 40.494 144.536 40.4194 144.686 40.27C144.835 40.126 144.91 39.9234 144.91 39.662V39.27L144.926 38.502H144.782L144.934 38.254C144.934 38.5847 144.824 38.846 144.606 39.038C144.387 39.2247 144.094 39.318 143.726 39.318C143.278 39.318 142.923 39.174 142.662 38.886C142.4 38.598 142.27 38.206 142.27 37.71V36.774C142.27 36.278 142.4 35.8834 142.662 35.59C142.923 35.2967 143.278 35.15 143.726 35.15C144.094 35.15 144.387 35.2487 144.606 35.446C144.824 35.638 144.934 35.8994 144.934 36.23L144.79 35.99H144.918V35.23H145.542V39.662C145.542 40.1047 145.411 40.4487 145.15 40.694C144.888 40.9447 144.523 41.07 144.054 41.07H142.838ZM143.91 38.79C144.224 38.79 144.47 38.694 144.646 38.502C144.827 38.3047 144.918 38.0327 144.918 37.686V36.806C144.918 36.4594 144.827 36.19 144.646 35.998C144.47 35.8007 144.224 35.702 143.91 35.702C143.59 35.702 143.342 35.7954 143.166 35.982C142.99 36.1687 142.902 36.4247 142.902 36.75V37.742C142.902 38.062 142.99 38.318 143.166 38.51C143.342 38.6967 143.59 38.79 143.91 38.79Z" fill="black"/>
<path d="M138.777 39.71C138.323 39.71 137.963 39.5847 137.697 39.334C137.435 39.078 137.305 38.7474 137.305 38.342C137.305 38.0754 137.363 37.8434 137.481 37.646C137.598 37.4434 137.763 37.286 137.977 37.174C138.195 37.0567 138.443 36.998 138.721 36.998H140.121V36.63C140.121 36.3207 140.038 36.0887 139.873 35.934C139.707 35.7794 139.465 35.702 139.145 35.702C138.851 35.702 138.614 35.7607 138.433 35.878C138.251 35.9954 138.155 36.1527 138.145 36.35H137.513C137.539 35.998 137.697 35.71 137.985 35.486C138.278 35.262 138.665 35.15 139.145 35.15C139.662 35.15 140.059 35.278 140.337 35.534C140.614 35.79 140.753 36.15 140.753 36.614V39.63H140.129V38.806H140.017L140.137 38.622C140.137 38.8407 140.081 39.0327 139.969 39.198C139.862 39.358 139.705 39.4834 139.497 39.574C139.294 39.6647 139.054 39.71 138.777 39.71ZM138.937 39.166C139.299 39.166 139.587 39.078 139.801 38.902C140.014 38.7207 140.121 38.4754 140.121 38.166V37.502H138.777C138.531 37.502 138.331 37.5767 138.177 37.726C138.022 37.8754 137.945 38.0727 137.945 38.318C137.945 38.574 138.033 38.7794 138.209 38.934C138.385 39.0887 138.627 39.166 138.937 39.166Z" fill="black"/>
<path d="M132.868 39.63V35.23H133.508V36.046H133.644L133.484 36.31C133.484 35.9527 133.59 35.67 133.804 35.462C134.017 35.254 134.313 35.15 134.692 35.15C135.156 35.15 135.51 35.2887 135.756 35.566C136.001 35.838 136.124 36.2247 136.124 36.726V37.11H135.492V36.726C135.492 36.3847 135.406 36.1287 135.236 35.958C135.07 35.7874 134.828 35.702 134.508 35.702C134.182 35.702 133.934 35.798 133.764 35.99C133.593 36.1767 133.508 36.4487 133.508 36.806V39.63H132.868Z" fill="black"/>
<path d="M129.183 39.71C128.73 39.71 128.37 39.5847 128.103 39.334C127.842 39.078 127.711 38.7474 127.711 38.342C127.711 38.0754 127.77 37.8434 127.887 37.646C128.004 37.4434 128.17 37.286 128.383 37.174C128.602 37.0567 128.85 36.998 129.127 36.998H130.527V36.63C130.527 36.3207 130.444 36.0887 130.279 35.934C130.114 35.7794 129.871 35.702 129.551 35.702C129.258 35.702 129.02 35.7607 128.839 35.878C128.658 35.9954 128.562 36.1527 128.551 36.35H127.919C127.946 35.998 128.103 35.71 128.391 35.486C128.684 35.262 129.071 35.15 129.551 35.15C130.068 35.15 130.466 35.278 130.743 35.534C131.02 35.79 131.159 36.15 131.159 36.614V39.63H130.535V38.806H130.423L130.543 38.622C130.543 38.8407 130.487 39.0327 130.375 39.198C130.268 39.358 130.111 39.4834 129.903 39.574C129.7 39.6647 129.46 39.71 129.183 39.71ZM129.343 39.166C129.706 39.166 129.994 39.078 130.207 38.902C130.42 38.7207 130.527 38.4754 130.527 38.166V37.502H129.183C128.938 37.502 128.738 37.5767 128.583 37.726C128.428 37.8754 128.351 38.0727 128.351 38.318C128.351 38.574 128.439 38.7794 128.615 38.934C128.791 39.0887 129.034 39.166 129.343 39.166Z" fill="black"/>
<path d="M123.114 39.63V33.79H124.946C125.303 33.79 125.613 33.8594 125.874 33.998C126.141 34.1367 126.346 34.334 126.49 34.59C126.634 34.8407 126.706 35.1394 126.706 35.486C126.706 35.8274 126.634 36.126 126.49 36.382C126.346 36.6327 126.141 36.83 125.874 36.974C125.613 37.1127 125.303 37.182 124.946 37.182H123.746V39.63H123.114ZM123.746 36.606H124.946C125.282 36.606 125.549 36.5047 125.746 36.302C125.949 36.0994 126.05 35.8274 126.05 35.486C126.05 35.1394 125.949 34.8674 125.746 34.67C125.549 34.4674 125.282 34.366 124.946 34.366H123.746V36.606Z" fill="black"/>
<path d="M142.122 69.57L142.77 67.85L141.13 63.73H141.818L142.874 66.474C142.917 66.5913 142.96 66.714 143.002 66.842C143.045 66.9646 143.077 67.0686 143.098 67.154C143.12 67.0686 143.149 66.9646 143.186 66.842C143.229 66.714 143.272 66.5886 143.314 66.466L144.298 63.73H144.97L142.778 69.57H142.122Z" fill="black"/>
<path d="M136.79 68.13V63.73H137.43V64.546H137.566L137.406 64.81C137.406 64.4527 137.512 64.17 137.726 63.962C137.939 63.754 138.235 63.65 138.614 63.65C139.078 63.65 139.432 63.7887 139.678 64.066C139.923 64.338 140.046 64.7247 140.046 65.226V65.61H139.414V65.226C139.414 64.8847 139.328 64.6287 139.158 64.458C138.992 64.2874 138.75 64.202 138.43 64.202C138.104 64.202 137.856 64.298 137.686 64.49C137.515 64.6767 137.43 64.9487 137.43 65.306V68.13H136.79Z" fill="black"/>
<path d="M133.457 68.202C133.115 68.202 132.817 68.1326 132.561 67.994C132.31 67.8553 132.115 67.658 131.977 67.402C131.843 67.146 131.777 66.8393 131.777 66.482V65.378C131.777 65.0206 131.843 64.714 131.977 64.458C132.115 64.202 132.31 64.0046 132.561 63.866C132.817 63.7273 133.115 63.658 133.457 63.658C133.803 63.658 134.102 63.7273 134.353 63.866C134.603 64.0046 134.795 64.202 134.929 64.458C135.067 64.714 135.137 65.0206 135.137 65.378V66.482C135.137 66.8393 135.067 67.146 134.929 67.402C134.795 67.658 134.601 67.8553 134.345 67.994C134.094 68.1326 133.798 68.202 133.457 68.202ZM133.457 67.634C133.787 67.634 134.043 67.5406 134.225 67.354C134.411 67.1673 134.505 66.8953 134.505 66.538V65.322C134.505 64.9646 134.411 64.6926 134.225 64.506C134.038 64.3193 133.782 64.226 133.457 64.226C133.131 64.226 132.875 64.3193 132.689 64.506C132.502 64.6926 132.409 64.9646 132.409 65.322V66.538C132.409 66.8953 132.502 67.1673 132.689 67.354C132.875 67.5406 133.131 67.634 133.457 67.634Z" fill="black"/>
<path d="M129.1 68.13C128.743 68.13 128.46 68.0313 128.252 67.834C128.044 67.6313 127.94 67.3567 127.94 67.01V64.306H126.668V63.73H127.94V62.49H128.58V63.73H130.388V64.306H128.58V67.01C128.58 67.1753 128.625 67.3087 128.716 67.41C128.812 67.506 128.94 67.554 129.1 67.554H130.348V68.13H129.1Z" fill="black"/>
<path d="M123.895 68.21C123.532 68.21 123.212 68.1433 122.935 68.01C122.658 67.8713 122.442 67.6766 122.287 67.426C122.138 67.17 122.063 66.8713 122.063 66.53H122.703C122.703 66.8713 122.812 67.1433 123.031 67.346C123.25 67.5433 123.538 67.642 123.895 67.642C124.242 67.642 124.519 67.5433 124.727 67.346C124.935 67.1486 125.039 66.89 125.039 66.57C125.039 66.3193 124.97 66.1006 124.831 65.914C124.698 65.722 124.508 65.5913 124.263 65.522L123.391 65.274C123.028 65.1673 122.74 64.978 122.527 64.706C122.319 64.4286 122.215 64.106 122.215 63.738C122.215 63.434 122.282 63.1673 122.415 62.938C122.554 62.7086 122.746 62.53 122.991 62.402C123.242 62.274 123.53 62.21 123.855 62.21C124.18 62.21 124.468 62.2766 124.719 62.41C124.97 62.538 125.164 62.7193 125.303 62.954C125.447 63.1833 125.519 63.4526 125.519 63.762H124.887C124.887 63.4686 124.791 63.2313 124.599 63.05C124.407 62.8633 124.159 62.77 123.855 62.77C123.551 62.77 123.306 62.858 123.119 63.034C122.932 63.21 122.839 63.4393 122.839 63.722C122.839 63.9513 122.9 64.1486 123.023 64.314C123.151 64.4793 123.324 64.5966 123.543 64.666L124.431 64.922C124.815 65.0286 125.116 65.2313 125.335 65.53C125.554 65.8233 125.663 66.17 125.663 66.57C125.663 66.9006 125.588 67.1886 125.439 67.434C125.295 67.6793 125.09 67.8713 124.823 68.01C124.562 68.1433 124.252 68.21 123.895 68.21Z" fill="black"/>
<path d="M158.988 116.21C158.647 116.21 158.351 116.141 158.1 116.002C157.849 115.863 157.655 115.666 157.516 115.41C157.377 115.149 157.308 114.842 157.308 114.49V113.37C157.308 113.013 157.377 112.706 157.516 112.45C157.655 112.194 157.849 111.997 158.1 111.858C158.351 111.719 158.647 111.65 158.988 111.65C159.329 111.65 159.625 111.719 159.876 111.858C160.127 111.991 160.321 112.183 160.46 112.434C160.599 112.679 160.668 112.97 160.668 113.306V114.09H157.924V114.554C157.924 114.895 158.02 115.165 158.212 115.362C158.404 115.559 158.663 115.658 158.988 115.658C159.265 115.658 159.495 115.602 159.676 115.49C159.857 115.373 159.967 115.215 160.004 115.018H160.636C160.588 115.386 160.415 115.677 160.116 115.89C159.817 116.103 159.441 116.21 158.988 116.21ZM160.052 113.658V113.306C160.052 112.949 159.959 112.671 159.772 112.474C159.585 112.277 159.324 112.178 158.988 112.178C158.652 112.178 158.391 112.277 158.204 112.474C158.017 112.671 157.924 112.949 157.924 113.306V113.586H160.116L160.052 113.658Z" fill="black"/>
<path d="M154.631 116.13C154.274 116.13 153.991 116.031 153.783 115.834C153.575 115.631 153.471 115.357 153.471 115.01V112.306H152.199V111.73H153.471V110.49H154.111V111.73H155.919V112.306H154.111V115.01C154.111 115.175 154.156 115.309 154.247 115.41C154.343 115.506 154.471 115.554 154.631 115.554H155.879V116.13H154.631Z" fill="black"/>
<path d="M149.394 116.202C149.053 116.202 148.754 116.133 148.498 115.994C148.248 115.855 148.053 115.658 147.914 115.402C147.781 115.146 147.714 114.839 147.714 114.482V113.378C147.714 113.021 147.781 112.714 147.914 112.458C148.053 112.202 148.248 112.005 148.498 111.866C148.754 111.727 149.053 111.658 149.394 111.658C149.741 111.658 150.04 111.727 150.29 111.866C150.541 112.005 150.733 112.202 150.866 112.458C151.005 112.714 151.074 113.021 151.074 113.378V114.482C151.074 114.839 151.005 115.146 150.866 115.402C150.733 115.658 150.538 115.855 150.282 115.994C150.032 116.133 149.736 116.202 149.394 116.202ZM149.394 115.634C149.725 115.634 149.981 115.541 150.162 115.354C150.349 115.167 150.442 114.895 150.442 114.538V113.322C150.442 112.965 150.349 112.693 150.162 112.506C149.976 112.319 149.72 112.226 149.394 112.226C149.069 112.226 148.813 112.319 148.626 112.506C148.44 112.693 148.346 112.965 148.346 113.322V114.538C148.346 114.895 148.44 115.167 148.626 115.354C148.813 115.541 149.069 115.634 149.394 115.634Z" fill="black"/>
<path d="M144.589 116.21C144.093 116.21 143.696 116.061 143.397 115.762C143.104 115.463 142.957 115.058 142.957 114.546V111.73H143.589V114.546C143.589 114.887 143.677 115.157 143.853 115.354C144.035 115.551 144.28 115.65 144.589 115.65C144.904 115.65 145.152 115.551 145.333 115.354C145.515 115.157 145.605 114.887 145.605 114.546V111.73H146.237V114.546C146.237 115.058 146.088 115.463 145.789 115.762C145.491 116.061 145.091 116.21 144.589 116.21Z" fill="black"/>
<path d="M140.833 117.57L139.969 116.146L140.065 116.194C140.038 116.194 140.001 116.197 139.953 116.202C139.905 116.207 139.854 116.21 139.801 116.21C139.454 116.21 139.153 116.141 138.897 116.002C138.641 115.863 138.443 115.669 138.305 115.418C138.166 115.162 138.097 114.863 138.097 114.522V111.898C138.097 111.551 138.166 111.253 138.305 111.002C138.443 110.751 138.641 110.557 138.897 110.418C139.153 110.279 139.454 110.21 139.801 110.21C140.153 110.21 140.454 110.282 140.705 110.426C140.961 110.565 141.158 110.759 141.297 111.01C141.435 111.261 141.505 111.557 141.505 111.898V114.522C141.505 114.874 141.43 115.181 141.281 115.442C141.131 115.703 140.918 115.901 140.641 116.034L141.577 117.57H140.833ZM139.801 115.642C140.131 115.642 140.393 115.541 140.585 115.338C140.777 115.135 140.873 114.863 140.873 114.522V111.898C140.873 111.551 140.777 111.279 140.585 111.082C140.393 110.879 140.131 110.778 139.801 110.778C139.475 110.778 139.214 110.879 139.017 111.082C138.825 111.279 138.729 111.551 138.729 111.898V114.522C138.729 114.863 138.825 115.135 139.017 115.338C139.214 115.541 139.475 115.642 139.801 115.642Z" fill="black"/>
<path d="M147.821 165.13V160.73H148.461V161.546H148.597L148.437 161.81C148.437 161.453 148.544 161.17 148.757 160.962C148.97 160.754 149.266 160.65 149.645 160.65C150.109 160.65 150.464 160.789 150.709 161.066C150.954 161.338 151.077 161.725 151.077 162.226V162.61H150.445V162.226C150.445 161.885 150.36 161.629 150.189 161.458C150.024 161.287 149.781 161.202 149.461 161.202C149.136 161.202 148.888 161.298 148.717 161.49C148.546 161.677 148.461 161.949 148.461 162.306V165.13H147.821Z" fill="black"/>
<path d="M144.488 165.21C144.147 165.21 143.851 165.141 143.6 165.002C143.349 164.863 143.155 164.666 143.016 164.41C142.877 164.149 142.808 163.842 142.808 163.49V162.37C142.808 162.013 142.877 161.706 143.016 161.45C143.155 161.194 143.349 160.997 143.6 160.858C143.851 160.719 144.147 160.65 144.488 160.65C144.829 160.65 145.125 160.719 145.376 160.858C145.627 160.991 145.821 161.183 145.96 161.434C146.099 161.679 146.168 161.97 146.168 162.306V163.09H143.424V163.554C143.424 163.895 143.52 164.165 143.712 164.362C143.904 164.559 144.163 164.658 144.488 164.658C144.765 164.658 144.995 164.602 145.176 164.49C145.357 164.373 145.467 164.215 145.504 164.018H146.136C146.088 164.386 145.915 164.677 145.616 164.89C145.317 165.103 144.941 165.21 144.488 165.21ZM145.552 162.658V162.306C145.552 161.949 145.459 161.671 145.272 161.474C145.085 161.277 144.824 161.178 144.488 161.178C144.152 161.178 143.891 161.277 143.704 161.474C143.517 161.671 143.424 161.949 143.424 162.306V162.586H145.616L145.552 162.658Z" fill="black"/>
<path d="M140.131 165.13C139.774 165.13 139.491 165.031 139.283 164.834C139.075 164.631 138.971 164.357 138.971 164.01V161.306H137.699V160.73H138.971V159.49H139.611V160.73H141.419V161.306H139.611V164.01C139.611 164.175 139.656 164.309 139.747 164.41C139.843 164.506 139.971 164.554 140.131 164.554H141.379V165.13H140.131Z" fill="black"/>
<path d="M134.894 165.202C134.553 165.202 134.254 165.133 133.998 164.994C133.748 164.855 133.553 164.658 133.414 164.402C133.281 164.146 133.214 163.839 133.214 163.482V162.378C133.214 162.021 133.281 161.714 133.414 161.458C133.553 161.202 133.748 161.005 133.998 160.866C134.254 160.727 134.553 160.658 134.894 160.658C135.241 160.658 135.54 160.727 135.79 160.866C136.041 161.005 136.233 161.202 136.366 161.458C136.505 161.714 136.574 162.021 136.574 162.378V163.482C136.574 163.839 136.505 164.146 136.366 164.402C136.233 164.658 136.038 164.855 135.782 164.994C135.532 165.133 135.236 165.202 134.894 165.202ZM134.894 164.634C135.225 164.634 135.481 164.541 135.662 164.354C135.849 164.167 135.942 163.895 135.942 163.538V162.322C135.942 161.965 135.849 161.693 135.662 161.506C135.476 161.319 135.22 161.226 134.894 161.226C134.569 161.226 134.313 161.319 134.126 161.506C133.94 161.693 133.846 161.965 133.846 162.322V163.538C133.846 163.895 133.94 164.167 134.126 164.354C134.313 164.541 134.569 164.634 134.894 164.634Z" fill="black"/>
<path d="M130.097 165.202C129.756 165.202 129.457 165.133 129.201 164.994C128.951 164.855 128.756 164.658 128.617 164.402C128.484 164.146 128.417 163.839 128.417 163.482V162.378C128.417 162.021 128.484 161.714 128.617 161.458C128.756 161.202 128.951 161.005 129.201 160.866C129.457 160.727 129.756 160.658 130.097 160.658C130.444 160.658 130.743 160.727 130.993 160.866C131.244 161.005 131.436 161.202 131.569 161.458C131.708 161.714 131.777 162.021 131.777 162.378V163.482C131.777 163.839 131.708 164.146 131.569 164.402C131.436 164.658 131.241 164.855 130.985 164.994C130.735 165.133 130.439 165.202 130.097 165.202ZM130.097 164.634C130.428 164.634 130.684 164.541 130.865 164.354C131.052 164.167 131.145 163.895 131.145 163.538V162.322C131.145 161.965 131.052 161.693 130.865 161.506C130.679 161.319 130.423 161.226 130.097 161.226C129.772 161.226 129.516 161.319 129.329 161.506C129.143 161.693 129.049 161.965 129.049 162.322V163.538C129.049 163.895 129.143 164.167 129.329 164.354C129.516 164.541 129.772 164.634 130.097 164.634Z" fill="black"/>
<path d="M123.701 165.13V159.29H127.101V159.866H124.325V161.914H126.877V162.49H124.341V165.13H123.701Z" fill="black"/>
<path d="M51.2536 115.202C50.9123 115.202 50.6136 115.133 50.3576 114.994C50.1069 114.855 49.9123 114.658 49.7736 114.402C49.6403 114.146 49.5736 113.839 49.5736 113.482V112.378C49.5736 112.021 49.6403 111.714 49.7736 111.458C49.9123 111.202 50.1069 111.005 50.3576 110.866C50.6136 110.727 50.9123 110.658 51.2536 110.658C51.6003 110.658 51.8989 110.727 52.1496 110.866C52.4003 111.005 52.5923 111.202 52.7256 111.458C52.8643 111.714 52.9336 112.021 52.9336 112.378V113.482C52.9336 113.839 52.8643 114.146 52.7256 114.402C52.5923 114.658 52.3976 114.855 52.1416 114.994C51.8909 115.133 51.5949 115.202 51.2536 115.202ZM51.2536 114.634C51.5843 114.634 51.8403 114.541 52.0216 114.354C52.2083 114.167 52.3016 113.895 52.3016 113.538V112.322C52.3016 111.965 52.2083 111.693 52.0216 111.506C51.8349 111.319 51.5789 111.226 51.2536 111.226C50.9283 111.226 50.6723 111.319 50.4856 111.506C50.2989 111.693 50.2056 111.965 50.2056 112.322V113.538C50.2056 113.895 50.2989 114.167 50.4856 114.354C50.6723 114.541 50.9283 114.634 51.2536 114.634Z" fill="black"/>
<path d="M44.9928 115.13V110.73H45.6328V111.546H45.7688L45.6088 111.81C45.6088 111.453 45.7155 111.17 45.9288 110.962C46.1421 110.754 46.4381 110.65 46.8168 110.65C47.2808 110.65 47.6355 110.789 47.8808 111.066C48.1261 111.338 48.2488 111.725 48.2488 112.226V112.61H47.6168V112.226C47.6168 111.885 47.5315 111.629 47.3608 111.458C47.1955 111.287 46.9528 111.202 46.6328 111.202C46.3075 111.202 46.0595 111.298 45.8888 111.49C45.7181 111.677 45.6328 111.949 45.6328 112.306V115.13H44.9928Z" fill="black"/>
<path d="M41.6599 115.21C41.3185 115.21 41.0225 115.141 40.7719 115.002C40.5212 114.863 40.3265 114.666 40.1879 114.41C40.0492 114.149 39.9799 113.842 39.9799 113.49V112.37C39.9799 112.013 40.0492 111.706 40.1879 111.45C40.3265 111.194 40.5212 110.997 40.7719 110.858C41.0225 110.719 41.3185 110.65 41.6599 110.65C42.0012 110.65 42.2972 110.719 42.5479 110.858C42.7985 110.991 42.9932 111.183 43.1319 111.434C43.2705 111.679 43.3399 111.97 43.3399 112.306V113.09H40.5959V113.554C40.5959 113.895 40.6919 114.165 40.8839 114.362C41.0759 114.559 41.3345 114.658 41.6599 114.658C41.9372 114.658 42.1665 114.602 42.3479 114.49C42.5292 114.373 42.6385 114.215 42.6759 114.018H43.3079C43.2599 114.386 43.0865 114.677 42.7879 114.89C42.4892 115.103 42.1132 115.21 41.6599 115.21ZM42.7239 112.658V112.306C42.7239 111.949 42.6305 111.671 42.4439 111.474C42.2572 111.277 41.9959 111.178 41.6599 111.178C41.3239 111.178 41.0625 111.277 40.8759 111.474C40.6892 111.671 40.5959 111.949 40.5959 112.306V112.586H42.7879L42.7239 112.658Z" fill="black"/>
<path d="M35.2471 115.13V109.29H35.8791V111.818H37.8471V109.29H38.4791V115.13H37.8471V112.394H35.8791V115.13H35.2471Z" fill="black"/>
</svg>
