<svg width="266" height="308" viewBox="0 0 266 308" fill="none" xmlns="http://www.w3.org/2000/svg">
<path d="M64 106V154H106M84 154V202H128M62 58H40V106H84M106 202V250H150" stroke="black" stroke-width="2"/>
<circle cx="64" cy="58" r="6" fill="black"/>
<circle cx="86" cy="106" r="6" fill="black"/>
<circle cx="108" cy="154" r="6" fill="black"/>
<circle cx="128" cy="202" r="6" fill="black"/>
<circle cx="148" cy="250" r="6" fill="black"/>
<path d="M226 76H92V48H226V76Z" fill="#FF3F00"/>
<path d="M92 76H226V48M92 76V48M92 76L84 68V40M92 48H226M92 48L84 40M226 48L218 40H84" stroke="black" stroke-width="2"/>
<path d="M104 88H218V116H104V88Z" fill="#F6FAFD"/>
<path d="M218 88H104V116M218 88V116M218 88L226 96V124M218 116H104M218 116L226 124M104 116L112 124H226" stroke="black" stroke-width="2"/>
<path d="M226 172H136V144H226V172Z" fill="#FF3F00"/>
<path d="M136 172H226V144M136 172V144M136 172L128 164V136M136 144H226M136 144L128 136M226 144L218 136H128" stroke="black" stroke-width="2"/>
<path d="M226 268H185V240H226V268Z" fill="#FF3F00"/>
<path d="M185 268H226V240M185 268V240M185 268L177 260V232M185 240H226M185 240L177 232M226 240L218 232H177" stroke="black" stroke-width="2"/>
<path d="M148 184H218V212H148V184Z" fill="#F6FAFD"/>
<path d="M218 184H148V212M218 184V212M218 184L226 192V220M218 212H148M218 212L226 220M148 212L156 220H226" stroke="black" stroke-width="2"/>
<path d="M180.401 68.1439C179.707 68.1439 179.105 68.0372 178.593 67.8239C178.091 67.6106 177.702 67.3066 177.425 66.9119C177.147 66.5172 177.009 66.0479 177.009 65.5039H178.977C178.977 65.8452 179.099 66.1066 179.345 66.2879C179.601 66.4692 179.953 66.5599 180.401 66.5599H181.105C181.585 66.5599 181.953 66.4692 182.209 66.2879C182.475 66.0959 182.609 65.8346 182.609 65.5039C182.609 65.1839 182.518 64.9439 182.337 64.7839C182.155 64.6239 181.878 64.5226 181.505 64.4799L179.313 64.1919C178.609 64.1066 178.065 63.8346 177.681 63.3759C177.307 62.9172 177.121 62.3359 177.121 61.6319C177.121 60.7999 177.398 60.1652 177.953 59.7279C178.507 59.2799 179.307 59.0559 180.353 59.0559H181.089C182.07 59.0559 182.859 59.2799 183.457 59.7279C184.054 60.1759 184.363 60.7732 184.385 61.5199H182.401C182.39 61.2426 182.267 61.0239 182.033 60.8639C181.798 60.6932 181.483 60.6079 181.089 60.6079H180.353C179.926 60.6079 179.601 60.6986 179.377 60.8799C179.153 61.0506 179.041 61.2852 179.041 61.5839C179.041 61.8506 179.121 62.0479 179.281 62.1759C179.451 62.2932 179.697 62.3732 180.017 62.4159L182.081 62.7039C182.891 62.8106 183.499 63.1039 183.905 63.5839C184.321 64.0532 184.529 64.6826 184.529 65.4719C184.529 66.3252 184.235 66.9866 183.649 67.4559C183.073 67.9146 182.225 68.1439 181.105 68.1439H180.401Z" fill="black"/>
<path d="M167.687 67.9999V56.3199H169.687V62.6559H171.095L173.191 59.1999H175.415L172.807 63.4559L175.511 67.9999H173.239L171.095 64.3519H169.687V67.9999H167.687Z" fill="black"/>
<path d="M161.725 68.1599C160.968 68.1599 160.307 68.0213 159.741 67.7439C159.187 67.4559 158.755 67.0559 158.445 66.5439C158.136 66.0213 157.981 65.4079 157.981 64.7039V62.4959C157.981 61.7813 158.136 61.1679 158.445 60.6559C158.755 60.1439 159.187 59.7492 159.741 59.4719C160.307 59.1839 160.968 59.0399 161.725 59.0399C162.824 59.0399 163.704 59.3279 164.365 59.9039C165.027 60.4693 165.379 61.2426 165.421 62.2239H163.453C163.421 61.7653 163.251 61.4133 162.941 61.1679C162.632 60.9119 162.227 60.7839 161.725 60.7839C161.181 60.7839 160.755 60.9332 160.445 61.2319C160.136 61.5199 159.981 61.9359 159.981 62.4799V64.7039C159.981 65.2479 160.136 65.6693 160.445 65.9679C160.755 66.2666 161.181 66.4159 161.725 66.4159C162.227 66.4159 162.632 66.2933 162.941 66.0479C163.251 65.7919 163.421 65.4346 163.453 64.9759H165.421C165.379 65.9573 165.027 66.7359 164.365 67.3119C163.704 67.8773 162.824 68.1599 161.725 68.1599Z" fill="black"/>
<path d="M151.987 68.1439C151.241 68.1439 150.59 67.9999 150.035 67.7119C149.481 67.4239 149.054 67.0186 148.755 66.4959C148.457 65.9626 148.307 65.3386 148.307 64.6239V62.5759C148.307 61.8506 148.457 61.2266 148.755 60.7039C149.054 60.1812 149.481 59.7759 150.035 59.4879C150.59 59.1999 151.241 59.0559 151.987 59.0559C152.745 59.0559 153.395 59.1999 153.939 59.4879C154.494 59.7759 154.921 60.1812 155.219 60.7039C155.518 61.2266 155.667 61.8506 155.667 62.5759V64.6239C155.667 65.3386 155.518 65.9626 155.219 66.4959C154.921 67.0186 154.494 67.4239 153.939 67.7119C153.395 67.9999 152.745 68.1439 151.987 68.1439ZM151.987 66.3999C152.521 66.3999 152.931 66.2559 153.219 65.9679C153.518 65.6692 153.667 65.2426 153.667 64.6879V62.5119C153.667 61.9466 153.518 61.5199 153.219 61.2319C152.931 60.9439 152.521 60.7999 151.987 60.7999C151.465 60.7999 151.054 60.9439 150.755 61.2319C150.457 61.5199 150.307 61.9466 150.307 62.5119V64.6879C150.307 65.2426 150.457 65.6692 150.755 65.9679C151.054 66.2559 151.465 66.3999 151.987 66.3999Z" fill="black"/>
<path d="M143.818 67.9999C143.242 67.9999 142.735 67.8826 142.298 67.6479C141.871 67.4133 141.535 67.0826 141.29 66.6559C141.044 66.2186 140.922 65.7173 140.922 65.1519V58.1279H138.026V56.3199H142.922V65.1039C142.922 65.4346 143.012 65.7013 143.194 65.9039C143.386 66.0959 143.642 66.1919 143.962 66.1919H146.538V67.9999H143.818Z" fill="black"/>
<path d="M129.232 67.9999V56.3199H132.816C133.563 56.3199 134.208 56.4426 134.752 56.6879C135.307 56.9333 135.733 57.2853 136.032 57.7439C136.341 58.1919 136.496 58.7199 136.496 59.3279C136.496 59.7546 136.411 60.1439 136.24 60.4959C136.08 60.8479 135.845 61.1413 135.536 61.3759C135.237 61.5999 134.896 61.7439 134.512 61.8079V61.8399C134.949 61.8933 135.339 62.0533 135.68 62.3199C136.021 62.5759 136.288 62.9119 136.48 63.3279C136.672 63.7333 136.768 64.1813 136.768 64.6719C136.768 65.3439 136.613 65.9306 136.304 66.4319C135.995 66.9333 135.557 67.3226 134.992 67.5999C134.427 67.8666 133.76 67.9999 132.992 67.9999H129.232ZM131.184 66.3359H132.88C133.467 66.3359 133.925 66.1813 134.256 65.8719C134.597 65.5519 134.768 65.1199 134.768 64.5759C134.768 64.0319 134.597 63.5946 134.256 63.2639C133.925 62.9226 133.467 62.7519 132.88 62.7519H131.184V66.3359ZM131.184 61.1359H132.784C133.317 61.1359 133.733 60.9973 134.032 60.7199C134.341 60.4319 134.496 60.0426 134.496 59.5519C134.496 59.0613 134.341 58.6773 134.032 58.3999C133.733 58.1226 133.317 57.9839 132.784 57.9839H131.184V61.1359Z" fill="black"/>
<path d="M203.401 164.144C202.707 164.144 202.105 164.037 201.593 163.824C201.091 163.611 200.702 163.307 200.425 162.912C200.147 162.517 200.009 162.048 200.009 161.504H201.977C201.977 161.845 202.099 162.107 202.345 162.288C202.601 162.469 202.953 162.56 203.401 162.56H204.105C204.585 162.56 204.953 162.469 205.209 162.288C205.475 162.096 205.609 161.835 205.609 161.504C205.609 161.184 205.518 160.944 205.337 160.784C205.155 160.624 204.878 160.523 204.505 160.48L202.313 160.192C201.609 160.107 201.065 159.835 200.681 159.376C200.307 158.917 200.121 158.336 200.121 157.632C200.121 156.8 200.398 156.165 200.953 155.728C201.507 155.28 202.307 155.056 203.353 155.056H204.089C205.07 155.056 205.859 155.28 206.457 155.728C207.054 156.176 207.363 156.773 207.385 157.52H205.401C205.39 157.243 205.267 157.024 205.033 156.864C204.798 156.693 204.483 156.608 204.089 156.608H203.353C202.926 156.608 202.601 156.699 202.377 156.88C202.153 157.051 202.041 157.285 202.041 157.584C202.041 157.851 202.121 158.048 202.281 158.176C202.451 158.293 202.697 158.373 203.017 158.416L205.081 158.704C205.891 158.811 206.499 159.104 206.905 159.584C207.321 160.053 207.529 160.683 207.529 161.472C207.529 162.325 207.235 162.987 206.649 163.456C206.073 163.915 205.225 164.144 204.105 164.144H203.401Z" fill="black"/>
<path d="M190.687 164V152.32H192.687V158.656H194.095L196.191 155.2H198.415L195.807 159.456L198.511 164H196.239L194.095 160.352H192.687V164H190.687Z" fill="black"/>
<path d="M184.725 164.16C183.968 164.16 183.307 164.021 182.741 163.744C182.187 163.456 181.755 163.056 181.445 162.544C181.136 162.021 180.981 161.408 180.981 160.704V158.496C180.981 157.781 181.136 157.168 181.445 156.656C181.755 156.144 182.187 155.749 182.741 155.472C183.307 155.184 183.968 155.04 184.725 155.04C185.824 155.04 186.704 155.328 187.365 155.904C188.027 156.469 188.379 157.243 188.421 158.224H186.453C186.421 157.765 186.251 157.413 185.941 157.168C185.632 156.912 185.227 156.784 184.725 156.784C184.181 156.784 183.755 156.933 183.445 157.232C183.136 157.52 182.981 157.936 182.981 158.48V160.704C182.981 161.248 183.136 161.669 183.445 161.968C183.755 162.267 184.181 162.416 184.725 162.416C185.227 162.416 185.632 162.293 185.941 162.048C186.251 161.792 186.421 161.435 186.453 160.976H188.421C188.379 161.957 188.027 162.736 187.365 163.312C186.704 163.877 185.824 164.16 184.725 164.16Z" fill="black"/>
<path d="M174.987 164.144C174.241 164.144 173.59 164 173.035 163.712C172.481 163.424 172.054 163.019 171.755 162.496C171.457 161.963 171.307 161.339 171.307 160.624V158.576C171.307 157.851 171.457 157.227 171.755 156.704C172.054 156.181 172.481 155.776 173.035 155.488C173.59 155.2 174.241 155.056 174.987 155.056C175.745 155.056 176.395 155.2 176.939 155.488C177.494 155.776 177.921 156.181 178.219 156.704C178.518 157.227 178.667 157.851 178.667 158.576V160.624C178.667 161.339 178.518 161.963 178.219 162.496C177.921 163.019 177.494 163.424 176.939 163.712C176.395 164 175.745 164.144 174.987 164.144ZM174.987 162.4C175.521 162.4 175.931 162.256 176.219 161.968C176.518 161.669 176.667 161.243 176.667 160.688V158.512C176.667 157.947 176.518 157.52 176.219 157.232C175.931 156.944 175.521 156.8 174.987 156.8C174.465 156.8 174.054 156.944 173.755 157.232C173.457 157.52 173.307 157.947 173.307 158.512V160.688C173.307 161.243 173.457 161.669 173.755 161.968C174.054 162.256 174.465 162.4 174.987 162.4Z" fill="black"/>
<path d="M166.818 164C166.242 164 165.735 163.883 165.298 163.648C164.871 163.413 164.535 163.083 164.29 162.656C164.044 162.219 163.922 161.717 163.922 161.152V154.128H161.026V152.32H165.922V161.104C165.922 161.435 166.012 161.701 166.194 161.904C166.386 162.096 166.642 162.192 166.962 162.192H169.538V164H166.818Z" fill="black"/>
<path d="M152.232 164V152.32H155.816C156.563 152.32 157.208 152.443 157.752 152.688C158.307 152.933 158.733 153.285 159.032 153.744C159.341 154.192 159.496 154.72 159.496 155.328C159.496 155.755 159.411 156.144 159.24 156.496C159.08 156.848 158.845 157.141 158.536 157.376C158.237 157.6 157.896 157.744 157.512 157.808V157.84C157.949 157.893 158.339 158.053 158.68 158.32C159.021 158.576 159.288 158.912 159.48 159.328C159.672 159.733 159.768 160.181 159.768 160.672C159.768 161.344 159.613 161.931 159.304 162.432C158.995 162.933 158.557 163.323 157.992 163.6C157.427 163.867 156.76 164 155.992 164H152.232ZM154.184 162.336H155.88C156.467 162.336 156.925 162.181 157.256 161.872C157.597 161.552 157.768 161.12 157.768 160.576C157.768 160.032 157.597 159.595 157.256 159.264C156.925 158.923 156.467 158.752 155.88 158.752H154.184V162.336ZM154.184 157.136H155.784C156.317 157.136 156.733 156.997 157.032 156.72C157.341 156.432 157.496 156.043 157.496 155.552C157.496 155.061 157.341 154.677 157.032 154.4C156.733 154.123 156.317 153.984 155.784 153.984H154.184V157.136Z" fill="black"/>
<path d="M194.693 256.235C193.765 256.235 193.008 255.472 193.008 254.544C193.008 253.632 193.765 252.869 194.693 252.869C195.616 252.869 196.368 253.632 196.368 254.544C196.368 255.472 195.616 256.235 194.693 256.235ZM204.787 256.235C203.859 256.235 203.102 255.472 203.102 254.544C203.102 253.632 203.859 252.869 204.787 252.869C205.71 252.869 206.462 253.632 206.462 254.544C206.462 255.472 205.71 256.235 204.787 256.235ZM214.881 256.235C213.953 256.235 213.195 255.472 213.195 254.544C213.195 253.632 213.953 252.869 214.881 252.869C215.804 252.869 216.556 253.632 216.556 254.544C216.556 255.472 215.804 256.235 214.881 256.235Z" fill="black"/>
<path d="M184.201 108V99.1999H186.153V100.88H186.697L186.105 101.344C186.115 100.64 186.339 100.08 186.777 99.6639C187.214 99.2479 187.795 99.0399 188.521 99.0399C189.385 99.0399 190.073 99.3279 190.585 99.9039C191.107 100.48 191.369 101.253 191.369 102.224V108H189.369V102.464C189.369 101.92 189.23 101.504 188.953 101.216C188.675 100.917 188.291 100.768 187.801 100.768C187.299 100.768 186.905 100.917 186.617 101.216C186.339 101.515 186.201 101.941 186.201 102.496V108H184.201Z" fill="black"/>
<path d="M174.591 108V106.192H177.599V101.008H174.911V99.2H179.599V106.192H182.303V108H174.591ZM178.463 97.728C178.058 97.728 177.738 97.6266 177.503 97.424C177.268 97.2106 177.151 96.9279 177.151 96.5759C177.151 96.2239 177.268 95.9466 177.503 95.7439C177.738 95.5306 178.058 95.424 178.463 95.424C178.868 95.424 179.188 95.5306 179.423 95.7439C179.658 95.9466 179.775 96.2239 179.775 96.5759C179.775 96.9279 179.658 97.2106 179.423 97.424C179.188 97.6266 178.868 97.728 178.463 97.728Z" fill="black"/>
<path d="M165.013 108V96.3199H167.013V99.1999L166.965 100.88H167.509L166.917 101.344C166.928 100.64 167.152 100.08 167.589 99.6639C168.027 99.2479 168.608 99.0399 169.333 99.0399C170.197 99.0399 170.885 99.3279 171.397 99.9039C171.92 100.48 172.181 101.253 172.181 102.224V108H170.181V102.464C170.181 101.92 170.043 101.504 169.765 101.216C169.488 100.917 169.104 100.768 168.613 100.768C168.112 100.768 167.717 100.917 167.429 101.216C167.152 101.515 167.013 101.941 167.013 102.496V108H165.013Z" fill="black"/>
<path d="M159.867 108C159.046 108 158.39 107.765 157.899 107.296C157.419 106.816 157.179 106.171 157.179 105.36V101.008H154.747V99.2H157.179V96.72H159.195V99.2H162.699V101.008H159.195V105.312C159.195 105.568 159.265 105.781 159.403 105.952C159.553 106.112 159.755 106.192 160.011 106.192H162.619V108H159.867Z" fill="black"/>
<path d="M145.81 108V106.192H148.818V101.008H146.13V99.2H150.818V106.192H153.522V108H145.81ZM149.682 97.728C149.276 97.728 148.956 97.6266 148.722 97.424C148.487 97.2106 148.37 96.9279 148.37 96.5759C148.37 96.2239 148.487 95.9466 148.722 95.7439C148.956 95.5306 149.276 95.424 149.682 95.424C150.087 95.424 150.407 95.5306 150.642 95.7439C150.876 95.9466 150.994 96.2239 150.994 96.5759C150.994 96.9279 150.876 97.2106 150.642 97.424C150.407 97.6266 150.087 97.728 149.682 97.728Z" fill="black"/>
<path d="M136.632 108L135.256 99.2H136.84L137.624 104.592C137.667 104.923 137.704 105.28 137.736 105.664C137.768 106.048 137.795 106.368 137.816 106.624C137.837 106.368 137.859 106.048 137.88 105.664C137.912 105.28 137.96 104.923 138.024 104.592L138.984 99.2H140.648L141.576 104.592C141.64 104.923 141.688 105.285 141.72 105.68C141.763 106.064 141.795 106.384 141.816 106.64C141.837 106.384 141.859 106.064 141.88 105.68C141.912 105.285 141.955 104.923 142.008 104.592L142.808 99.2H144.344L142.936 108H140.872L140.04 102.576C139.997 102.267 139.949 101.92 139.896 101.536C139.853 101.141 139.821 100.827 139.8 100.592C139.8 100.752 139.784 100.949 139.752 101.184C139.72 101.419 139.688 101.659 139.656 101.904C139.624 102.149 139.592 102.373 139.56 102.576L138.696 108H136.632Z" fill="black"/>
<path d="M202.201 204V195.2H204.153V196.88H204.697L204.105 197.344C204.115 196.64 204.339 196.08 204.777 195.664C205.214 195.248 205.795 195.04 206.521 195.04C207.385 195.04 208.073 195.328 208.585 195.904C209.107 196.48 209.369 197.253 209.369 198.224V204H207.369V198.464C207.369 197.92 207.23 197.504 206.953 197.216C206.675 196.917 206.291 196.768 205.801 196.768C205.299 196.768 204.905 196.917 204.617 197.216C204.339 197.515 204.201 197.941 204.201 198.496V204H202.201Z" fill="black"/>
<path d="M192.591 204V202.192H195.599V197.008H192.911V195.2H197.599V202.192H200.303V204H192.591ZM196.463 193.728C196.058 193.728 195.738 193.627 195.503 193.424C195.268 193.211 195.151 192.928 195.151 192.576C195.151 192.224 195.268 191.947 195.503 191.744C195.738 191.531 196.058 191.424 196.463 191.424C196.868 191.424 197.188 191.531 197.423 191.744C197.658 191.947 197.775 192.224 197.775 192.576C197.775 192.928 197.658 193.211 197.423 193.424C197.188 193.627 196.868 193.728 196.463 193.728Z" fill="black"/>
<path d="M183.013 204V192.32H185.013V195.2L184.965 196.88H185.509L184.917 197.344C184.928 196.64 185.152 196.08 185.589 195.664C186.027 195.248 186.608 195.04 187.333 195.04C188.197 195.04 188.885 195.328 189.397 195.904C189.92 196.48 190.181 197.253 190.181 198.224V204H188.181V198.464C188.181 197.92 188.043 197.504 187.765 197.216C187.488 196.917 187.104 196.768 186.613 196.768C186.112 196.768 185.717 196.917 185.429 197.216C185.152 197.515 185.013 197.941 185.013 198.496V204H183.013Z" fill="black"/>
<path d="M177.867 204C177.046 204 176.39 203.765 175.899 203.296C175.419 202.816 175.179 202.171 175.179 201.36V197.008H172.747V195.2H175.179V192.72H177.195V195.2H180.699V197.008H177.195V201.312C177.195 201.568 177.265 201.781 177.403 201.952C177.553 202.112 177.755 202.192 178.011 202.192H180.619V204H177.867Z" fill="black"/>
<path d="M163.81 204V202.192H166.818V197.008H164.13V195.2H168.818V202.192H171.522V204H163.81ZM167.682 193.728C167.276 193.728 166.956 193.627 166.722 193.424C166.487 193.211 166.37 192.928 166.37 192.576C166.37 192.224 166.487 191.947 166.722 191.744C166.956 191.531 167.276 191.424 167.682 191.424C168.087 191.424 168.407 191.531 168.642 191.744C168.876 191.947 168.994 192.224 168.994 192.576C168.994 192.928 168.876 193.211 168.642 193.424C168.407 193.627 168.087 193.728 167.682 193.728Z" fill="black"/>
<path d="M154.632 204L153.256 195.2H154.84L155.624 200.592C155.667 200.923 155.704 201.28 155.736 201.664C155.768 202.048 155.795 202.368 155.816 202.624C155.837 202.368 155.859 202.048 155.88 201.664C155.912 201.28 155.96 200.923 156.024 200.592L156.984 195.2H158.648L159.576 200.592C159.64 200.923 159.688 201.285 159.72 201.68C159.763 202.064 159.795 202.384 159.816 202.64C159.837 202.384 159.859 202.064 159.88 201.68C159.912 201.285 159.955 200.923 160.008 200.592L160.808 195.2H162.344L160.936 204H158.872L158.04 198.576C157.997 198.267 157.949 197.92 157.896 197.536C157.853 197.141 157.821 196.827 157.8 196.592C157.8 196.752 157.784 196.949 157.752 197.184C157.72 197.419 157.688 197.659 157.656 197.904C157.624 198.149 157.592 198.373 157.56 198.576L156.696 204H154.632Z" fill="black"/>
</svg>
