<svg width="188" height="230" viewBox="0 0 188 230" fill="none" xmlns="http://www.w3.org/2000/svg">
<path d="M25 67V115H67M45 115V163H89M23 19H1V67H45M67 163V211H111" stroke="black" stroke-width="2"/>
<circle cx="25" cy="19" r="6" fill="black"/>
<circle cx="47" cy="67" r="6" fill="black"/>
<circle cx="69" cy="115" r="6" fill="black"/>
<circle cx="89" cy="163" r="6" fill="black"/>
<circle cx="109" cy="211" r="6" fill="black"/>
<path d="M187 37H53V9H187V37Z" fill="#FF3F00"/>
<path d="M53 37H187V9M53 37V9M53 37L45 29V1M53 9H187M53 9L45 1M187 9L179 1H45" stroke="black" stroke-width="2"/>
<path d="M179 49H65V77M179 49V77M179 49L187 57V85M179 77H65M179 77L187 85M65 77L73 85H187" stroke="black" stroke-width="2"/>
<path d="M187 133H97V105H187V133Z" fill="#FF3F00"/>
<path d="M97 133H187V105M97 133V105M97 133L89 125V97M97 105H187M97 105L89 97M187 105L179 97H89" stroke="black" stroke-width="2"/>
<path d="M187 229H146V201H187V229Z" fill="#FF3F00"/>
<path d="M146 229H187V201M146 229V201M146 229L138 221V193M146 201H187M146 201L138 193M187 201L179 193H138" stroke="black" stroke-width="2"/>
<path d="M179 145H109V173M179 145V173M179 145L187 153V181M179 173H109M179 173L187 181M109 173L117 181H187" stroke="black" stroke-width="2"/>
<path d="M90.232 29V17.32H93.816C94.5627 17.32 95.208 17.4427 95.752 17.688C96.3067 17.9333 96.7333 18.2853 97.032 18.744C97.3413 19.192 97.496 19.72 97.496 20.328C97.496 20.7547 97.4107 21.144 97.24 21.496C97.08 21.848 96.8453 22.1413 96.536 22.376C96.2373 22.6 95.896 22.744 95.512 22.808V22.84C95.9493 22.8933 96.3387 23.0533 96.68 23.32C97.0213 23.576 97.288 23.912 97.48 24.328C97.672 24.7333 97.768 25.1813 97.768 25.672C97.768 26.344 97.6133 26.9307 97.304 27.432C96.9947 27.9333 96.5573 28.3227 95.992 28.6C95.4267 28.8667 94.76 29 93.992 29H90.232ZM92.184 27.336H93.88C94.4667 27.336 94.9253 27.1813 95.256 26.872C95.5973 26.552 95.768 26.12 95.768 25.576C95.768 25.032 95.5973 24.5947 95.256 24.264C94.9253 23.9227 94.4667 23.752 93.88 23.752H92.184V27.336ZM92.184 22.136H93.784C94.3173 22.136 94.7333 21.9973 95.032 21.72C95.3413 21.432 95.496 21.0427 95.496 20.552C95.496 20.0613 95.3413 19.6773 95.032 19.4C94.7333 19.1227 94.3173 18.984 93.784 18.984H92.184V22.136ZM104.818 29C104.242 29 103.735 28.8827 103.298 28.648C102.871 28.4133 102.535 28.0827 102.29 27.656C102.044 27.2187 101.922 26.7173 101.922 26.152V19.128H99.0258V17.32H103.922V26.104C103.922 26.4347 104.012 26.7013 104.194 26.904C104.386 27.096 104.642 27.192 104.962 27.192H107.538V29H104.818ZM112.988 29.144C112.241 29.144 111.59 29 111.036 28.712C110.481 28.424 110.054 28.0187 109.756 27.496C109.457 26.9627 109.308 26.3387 109.308 25.624V23.576C109.308 22.8507 109.457 22.2267 109.756 21.704C110.054 21.1813 110.481 20.776 111.036 20.488C111.59 20.2 112.241 20.056 112.988 20.056C113.745 20.056 114.396 20.2 114.94 20.488C115.494 20.776 115.921 21.1813 116.22 21.704C116.518 22.2267 116.668 22.8507 116.668 23.576V25.624C116.668 26.3387 116.518 26.9627 116.22 27.496C115.921 28.0187 115.494 28.424 114.94 28.712C114.396 29 113.745 29.144 112.988 29.144ZM112.988 27.4C113.521 27.4 113.932 27.256 114.22 26.968C114.518 26.6693 114.668 26.2427 114.668 25.688V23.512C114.668 22.9467 114.518 22.52 114.22 22.232C113.932 21.944 113.521 21.8 112.988 21.8C112.465 21.8 112.054 21.944 111.756 22.232C111.457 22.52 111.308 22.9467 111.308 23.512V25.688C111.308 26.2427 111.457 26.6693 111.756 26.968C112.054 27.256 112.465 27.4 112.988 27.4ZM122.725 29.16C121.968 29.16 121.307 29.0213 120.741 28.744C120.187 28.456 119.755 28.056 119.445 27.544C119.136 27.0213 118.981 26.408 118.981 25.704V23.496C118.981 22.7813 119.136 22.168 119.445 21.656C119.755 21.144 120.187 20.7493 120.741 20.472C121.307 20.184 121.968 20.04 122.725 20.04C123.824 20.04 124.704 20.328 125.365 20.904C126.027 21.4693 126.379 22.2427 126.421 23.224H124.453C124.421 22.7653 124.251 22.4133 123.941 22.168C123.632 21.912 123.227 21.784 122.725 21.784C122.181 21.784 121.755 21.9333 121.445 22.232C121.136 22.52 120.981 22.936 120.981 23.48V25.704C120.981 26.248 121.136 26.6693 121.445 26.968C121.755 27.2667 122.181 27.416 122.725 27.416C123.227 27.416 123.632 27.2933 123.941 27.048C124.251 26.792 124.421 26.4347 124.453 25.976H126.421C126.379 26.9573 126.027 27.736 125.365 28.312C124.704 28.8773 123.824 29.16 122.725 29.16ZM128.687 29V17.32H130.687V23.656H132.095L134.191 20.2H136.415L133.807 24.456L136.511 29H134.239L132.095 25.352H130.687V29H128.687ZM141.401 29.144C140.707 29.144 140.105 29.0373 139.593 28.824C139.091 28.6107 138.702 28.3067 138.425 27.912C138.147 27.5173 138.009 27.048 138.009 26.504H139.977C139.977 26.8453 140.099 27.1067 140.345 27.288C140.601 27.4693 140.953 27.56 141.401 27.56H142.105C142.585 27.56 142.953 27.4693 143.209 27.288C143.475 27.096 143.609 26.8347 143.609 26.504C143.609 26.184 143.518 25.944 143.337 25.784C143.155 25.624 142.878 25.5227 142.505 25.48L140.313 25.192C139.609 25.1067 139.065 24.8347 138.681 24.376C138.307 23.9173 138.121 23.336 138.121 22.632C138.121 21.8 138.398 21.1653 138.953 20.728C139.507 20.28 140.307 20.056 141.353 20.056H142.089C143.07 20.056 143.859 20.28 144.457 20.728C145.054 21.176 145.363 21.7733 145.385 22.52H143.401C143.39 22.2427 143.267 22.024 143.033 21.864C142.798 21.6933 142.483 21.608 142.089 21.608H141.353C140.926 21.608 140.601 21.6987 140.377 21.88C140.153 22.0507 140.041 22.2853 140.041 22.584C140.041 22.8507 140.121 23.048 140.281 23.176C140.451 23.2933 140.697 23.3733 141.017 23.416L143.081 23.704C143.891 23.8107 144.499 24.104 144.905 24.584C145.321 25.0533 145.529 25.6827 145.529 26.472C145.529 27.3253 145.235 27.9867 144.649 28.456C144.073 28.9147 143.225 29.144 142.105 29.144H141.401Z" fill="black"/>
<path d="M113.232 125V113.32H116.816C117.563 113.32 118.208 113.443 118.752 113.688C119.307 113.933 119.733 114.285 120.032 114.744C120.341 115.192 120.496 115.72 120.496 116.328C120.496 116.755 120.411 117.144 120.24 117.496C120.08 117.848 119.845 118.141 119.536 118.376C119.237 118.6 118.896 118.744 118.512 118.808V118.84C118.949 118.893 119.339 119.053 119.68 119.32C120.021 119.576 120.288 119.912 120.48 120.328C120.672 120.733 120.768 121.181 120.768 121.672C120.768 122.344 120.613 122.931 120.304 123.432C119.995 123.933 119.557 124.323 118.992 124.6C118.427 124.867 117.76 125 116.992 125H113.232ZM115.184 123.336H116.88C117.467 123.336 117.925 123.181 118.256 122.872C118.597 122.552 118.768 122.12 118.768 121.576C118.768 121.032 118.597 120.595 118.256 120.264C117.925 119.923 117.467 119.752 116.88 119.752H115.184V123.336ZM115.184 118.136H116.784C117.317 118.136 117.733 117.997 118.032 117.72C118.341 117.432 118.496 117.043 118.496 116.552C118.496 116.061 118.341 115.677 118.032 115.4C117.733 115.123 117.317 114.984 116.784 114.984H115.184V118.136ZM127.818 125C127.242 125 126.735 124.883 126.298 124.648C125.871 124.413 125.535 124.083 125.29 123.656C125.044 123.219 124.922 122.717 124.922 122.152V115.128H122.026V113.32H126.922V122.104C126.922 122.435 127.012 122.701 127.194 122.904C127.386 123.096 127.642 123.192 127.962 123.192H130.538V125H127.818ZM135.988 125.144C135.241 125.144 134.59 125 134.036 124.712C133.481 124.424 133.054 124.019 132.756 123.496C132.457 122.963 132.308 122.339 132.308 121.624V119.576C132.308 118.851 132.457 118.227 132.756 117.704C133.054 117.181 133.481 116.776 134.036 116.488C134.59 116.2 135.241 116.056 135.988 116.056C136.745 116.056 137.396 116.2 137.94 116.488C138.494 116.776 138.921 117.181 139.22 117.704C139.518 118.227 139.668 118.851 139.668 119.576V121.624C139.668 122.339 139.518 122.963 139.22 123.496C138.921 124.019 138.494 124.424 137.94 124.712C137.396 125 136.745 125.144 135.988 125.144ZM135.988 123.4C136.521 123.4 136.932 123.256 137.22 122.968C137.518 122.669 137.668 122.243 137.668 121.688V119.512C137.668 118.947 137.518 118.52 137.22 118.232C136.932 117.944 136.521 117.8 135.988 117.8C135.465 117.8 135.054 117.944 134.756 118.232C134.457 118.52 134.308 118.947 134.308 119.512V121.688C134.308 122.243 134.457 122.669 134.756 122.968C135.054 123.256 135.465 123.4 135.988 123.4ZM145.725 125.16C144.968 125.16 144.307 125.021 143.741 124.744C143.187 124.456 142.755 124.056 142.445 123.544C142.136 123.021 141.981 122.408 141.981 121.704V119.496C141.981 118.781 142.136 118.168 142.445 117.656C142.755 117.144 143.187 116.749 143.741 116.472C144.307 116.184 144.968 116.04 145.725 116.04C146.824 116.04 147.704 116.328 148.365 116.904C149.027 117.469 149.379 118.243 149.421 119.224H147.453C147.421 118.765 147.251 118.413 146.941 118.168C146.632 117.912 146.227 117.784 145.725 117.784C145.181 117.784 144.755 117.933 144.445 118.232C144.136 118.52 143.981 118.936 143.981 119.48V121.704C143.981 122.248 144.136 122.669 144.445 122.968C144.755 123.267 145.181 123.416 145.725 123.416C146.227 123.416 146.632 123.293 146.941 123.048C147.251 122.792 147.421 122.435 147.453 121.976H149.421C149.379 122.957 149.027 123.736 148.365 124.312C147.704 124.877 146.824 125.16 145.725 125.16ZM151.687 125V113.32H153.687V119.656H155.095L157.191 116.2H159.415L156.807 120.456L159.511 125H157.239L155.095 121.352H153.687V125H151.687ZM164.401 125.144C163.707 125.144 163.105 125.037 162.593 124.824C162.091 124.611 161.702 124.307 161.425 123.912C161.147 123.517 161.009 123.048 161.009 122.504H162.977C162.977 122.845 163.099 123.107 163.345 123.288C163.601 123.469 163.953 123.56 164.401 123.56H165.105C165.585 123.56 165.953 123.469 166.209 123.288C166.475 123.096 166.609 122.835 166.609 122.504C166.609 122.184 166.518 121.944 166.337 121.784C166.155 121.624 165.878 121.523 165.505 121.48L163.313 121.192C162.609 121.107 162.065 120.835 161.681 120.376C161.307 119.917 161.121 119.336 161.121 118.632C161.121 117.8 161.398 117.165 161.953 116.728C162.507 116.28 163.307 116.056 164.353 116.056H165.089C166.07 116.056 166.859 116.28 167.457 116.728C168.054 117.176 168.363 117.773 168.385 118.52H166.401C166.39 118.243 166.267 118.024 166.033 117.864C165.798 117.693 165.483 117.608 165.089 117.608H164.353C163.926 117.608 163.601 117.699 163.377 117.88C163.153 118.051 163.041 118.285 163.041 118.584C163.041 118.851 163.121 119.048 163.281 119.176C163.451 119.293 163.697 119.373 164.017 119.416L166.081 119.704C166.891 119.811 167.499 120.104 167.905 120.584C168.321 121.053 168.529 121.683 168.529 122.472C168.529 123.325 168.235 123.987 167.649 124.456C167.073 124.915 166.225 125.144 165.105 125.144H164.401Z" fill="black"/>
<path d="M155.693 217.235C154.765 217.235 154.008 216.472 154.008 215.544C154.008 214.632 154.765 213.869 155.693 213.869C156.616 213.869 157.368 214.632 157.368 215.544C157.368 216.472 156.616 217.235 155.693 217.235ZM165.787 217.235C164.859 217.235 164.102 216.472 164.102 215.544C164.102 214.632 164.859 213.869 165.787 213.869C166.71 213.869 167.462 214.632 167.462 215.544C167.462 216.472 166.71 217.235 165.787 217.235ZM175.881 217.235C174.953 217.235 174.195 216.472 174.195 215.544C174.195 214.632 174.953 213.869 175.881 213.869C176.804 213.869 177.556 214.632 177.556 215.544C177.556 216.472 176.804 217.235 175.881 217.235Z" fill="black"/>
<path d="M97.632 69L96.256 60.2H97.84L98.624 65.592C98.6667 65.9227 98.704 66.28 98.736 66.664C98.768 67.048 98.7947 67.368 98.816 67.624C98.8373 67.368 98.8587 67.048 98.88 66.664C98.912 66.28 98.96 65.9227 99.024 65.592L99.984 60.2H101.648L102.576 65.592C102.64 65.9227 102.688 66.2853 102.72 66.68C102.763 67.064 102.795 67.384 102.816 67.64C102.837 67.384 102.859 67.064 102.88 66.68C102.912 66.2853 102.955 65.9227 103.008 65.592L103.808 60.2H105.344L103.936 69H101.872L101.04 63.576C100.997 63.2667 100.949 62.92 100.896 62.536C100.853 62.1413 100.821 61.8267 100.8 61.592C100.8 61.752 100.784 61.9493 100.752 62.184C100.72 62.4187 100.688 62.6587 100.656 62.904C100.624 63.1493 100.592 63.3733 100.56 63.576L99.696 69H97.632ZM106.81 69V67.192H109.818V62.008H107.13V60.2H111.818V67.192H114.522V69H106.81ZM110.682 58.728C110.276 58.728 109.956 58.6267 109.722 58.424C109.487 58.2107 109.37 57.928 109.37 57.576C109.37 57.224 109.487 56.9467 109.722 56.744C109.956 56.5307 110.276 56.424 110.682 56.424C111.087 56.424 111.407 56.5307 111.642 56.744C111.876 56.9467 111.994 57.224 111.994 57.576C111.994 57.928 111.876 58.2107 111.642 58.424C111.407 58.6267 111.087 58.728 110.682 58.728ZM120.868 69C120.046 69 119.39 68.7653 118.9 68.296C118.42 67.816 118.18 67.1707 118.18 66.36V62.008H115.748V60.2H118.18V57.72H120.196V60.2H123.7V62.008H120.196V66.312C120.196 66.568 120.265 66.7813 120.404 66.952C120.553 67.112 120.756 67.192 121.012 67.192H123.62V69H120.868ZM126.013 69V57.32H128.013V60.2L127.965 61.88H128.509L127.917 62.344C127.928 61.64 128.152 61.08 128.589 60.664C129.027 60.248 129.608 60.04 130.333 60.04C131.197 60.04 131.885 60.328 132.397 60.904C132.92 61.48 133.181 62.2533 133.181 63.224V69H131.181V63.464C131.181 62.92 131.043 62.504 130.765 62.216C130.488 61.9173 130.104 61.768 129.613 61.768C129.112 61.768 128.717 61.9173 128.429 62.216C128.152 62.5147 128.013 62.9413 128.013 63.496V69H126.013ZM135.591 69V67.192H138.599V62.008H135.911V60.2H140.599V67.192H143.303V69H135.591ZM139.463 58.728C139.058 58.728 138.738 58.6267 138.503 58.424C138.268 58.2107 138.151 57.928 138.151 57.576C138.151 57.224 138.268 56.9467 138.503 56.744C138.738 56.5307 139.058 56.424 139.463 56.424C139.868 56.424 140.188 56.5307 140.423 56.744C140.658 56.9467 140.775 57.224 140.775 57.576C140.775 57.928 140.658 58.2107 140.423 58.424C140.188 58.6267 139.868 58.728 139.463 58.728ZM145.201 69V60.2H147.153V61.88H147.697L147.105 62.344C147.115 61.64 147.339 61.08 147.777 60.664C148.214 60.248 148.795 60.04 149.521 60.04C150.385 60.04 151.073 60.328 151.585 60.904C152.107 61.48 152.369 62.2533 152.369 63.224V69H150.369V63.464C150.369 62.92 150.23 62.504 149.953 62.216C149.675 61.9173 149.291 61.768 148.801 61.768C148.299 61.768 147.905 61.9173 147.617 62.216C147.339 62.5147 147.201 62.9413 147.201 63.496V69H145.201Z" fill="black"/>
<path d="M115.632 165L114.256 156.2H115.84L116.624 161.592C116.667 161.923 116.704 162.28 116.736 162.664C116.768 163.048 116.795 163.368 116.816 163.624C116.837 163.368 116.859 163.048 116.88 162.664C116.912 162.28 116.96 161.923 117.024 161.592L117.984 156.2H119.648L120.576 161.592C120.64 161.923 120.688 162.285 120.72 162.68C120.763 163.064 120.795 163.384 120.816 163.64C120.837 163.384 120.859 163.064 120.88 162.68C120.912 162.285 120.955 161.923 121.008 161.592L121.808 156.2H123.344L121.936 165H119.872L119.04 159.576C118.997 159.267 118.949 158.92 118.896 158.536C118.853 158.141 118.821 157.827 118.8 157.592C118.8 157.752 118.784 157.949 118.752 158.184C118.72 158.419 118.688 158.659 118.656 158.904C118.624 159.149 118.592 159.373 118.56 159.576L117.696 165H115.632ZM124.81 165V163.192H127.818V158.008H125.13V156.2H129.818V163.192H132.522V165H124.81ZM128.682 154.728C128.276 154.728 127.956 154.627 127.722 154.424C127.487 154.211 127.37 153.928 127.37 153.576C127.37 153.224 127.487 152.947 127.722 152.744C127.956 152.531 128.276 152.424 128.682 152.424C129.087 152.424 129.407 152.531 129.642 152.744C129.876 152.947 129.994 153.224 129.994 153.576C129.994 153.928 129.876 154.211 129.642 154.424C129.407 154.627 129.087 154.728 128.682 154.728ZM138.868 165C138.046 165 137.39 164.765 136.9 164.296C136.42 163.816 136.18 163.171 136.18 162.36V158.008H133.748V156.2H136.18V153.72H138.196V156.2H141.7V158.008H138.196V162.312C138.196 162.568 138.265 162.781 138.404 162.952C138.553 163.112 138.756 163.192 139.012 163.192H141.62V165H138.868ZM144.013 165V153.32H146.013V156.2L145.965 157.88H146.509L145.917 158.344C145.928 157.64 146.152 157.08 146.589 156.664C147.027 156.248 147.608 156.04 148.333 156.04C149.197 156.04 149.885 156.328 150.397 156.904C150.92 157.48 151.181 158.253 151.181 159.224V165H149.181V159.464C149.181 158.92 149.043 158.504 148.765 158.216C148.488 157.917 148.104 157.768 147.613 157.768C147.112 157.768 146.717 157.917 146.429 158.216C146.152 158.515 146.013 158.941 146.013 159.496V165H144.013ZM153.591 165V163.192H156.599V158.008H153.911V156.2H158.599V163.192H161.303V165H153.591ZM157.463 154.728C157.058 154.728 156.738 154.627 156.503 154.424C156.268 154.211 156.151 153.928 156.151 153.576C156.151 153.224 156.268 152.947 156.503 152.744C156.738 152.531 157.058 152.424 157.463 152.424C157.868 152.424 158.188 152.531 158.423 152.744C158.658 152.947 158.775 153.224 158.775 153.576C158.775 153.928 158.658 154.211 158.423 154.424C158.188 154.627 157.868 154.728 157.463 154.728ZM163.201 165V156.2H165.153V157.88H165.697L165.105 158.344C165.115 157.64 165.339 157.08 165.777 156.664C166.214 156.248 166.795 156.04 167.521 156.04C168.385 156.04 169.073 156.328 169.585 156.904C170.107 157.48 170.369 158.253 170.369 159.224V165H168.369V159.464C168.369 158.92 168.23 158.504 167.953 158.216C167.675 157.917 167.291 157.768 166.801 157.768C166.299 157.768 165.905 157.917 165.617 158.216C165.339 158.515 165.201 158.941 165.201 159.496V165H163.201Z" fill="black"/>
</svg>
