<svg width="266" height="308" viewBox="0 0 266 308" fill="none" xmlns="http://www.w3.org/2000/svg">
<path d="M64 106V154H106M84 154V202H128M62 58H40V106H84M106 202V250H150" stroke="black" stroke-width="2"/>
<circle cx="64" cy="58" r="6" fill="black"/>
<circle cx="86" cy="106" r="6" fill="black"/>
<circle cx="108" cy="154" r="6" fill="black"/>
<circle cx="128" cy="202" r="6" fill="black"/>
<circle cx="148" cy="250" r="6" fill="black"/>
<path d="M226 76H92V48H226V76Z" fill="#FF3F00"/>
<path d="M92 76H226V48M92 76V48M92 76L84 68V40M92 48H226M92 48L84 40M226 48L218 40H84" stroke="black" stroke-width="2"/>
<path d="M104 88H218V116H104V88Z" fill="#F6FAFD"/>
<path d="M218 88H104V116M218 88V116M218 88L226 96V124M218 116H104M218 116L226 124M104 116L112 124H226" stroke="black" stroke-width="2"/>
<path d="M226 172H136V144H226V172Z" fill="#FF3F00"/>
<path d="M136 172H226V144M136 172V144M136 172L128 164V136M136 144H226M136 144L128 136M226 144L218 136H128" stroke="black" stroke-width="2"/>
<path d="M226 268H185V240H226V268Z" fill="#FF3F00"/>
<path d="M185 268H226V240M185 268V240M185 268L177 260V232M185 240H226M185 240L177 232M226 240L218 232H177" stroke="black" stroke-width="2"/>
<path d="M148 184H218V212H148V184Z" fill="#F6FAFD"/>
<path d="M218 184H148V212M218 184V212M218 184L226 192V220M218 212H148M218 212L226 220M148 212L156 220H226" stroke="black" stroke-width="2"/>
<path d="M130.779 56.2933C130.848 56.2827 131.392 56.2347 132.555 56.2347C135.125 56.2293 136.645 56.8907 136.645 59.0773C136.645 60.608 135.691 61.4773 134.16 61.744C136.549 61.8453 137.339 63.1307 137.339 64.6453C137.339 66.832 135.68 68.096 132.523 68.0427C131.435 68.0213 131.056 68.016 130.784 67.9947C130.171 67.952 129.808 67.664 129.808 66.624L129.803 57.8187C129.803 56.7093 130.165 56.3573 130.779 56.2933ZM131.947 61.216C132.059 61.2213 132.139 61.2213 132.24 61.2213C133.787 61.2213 134.448 60.6133 134.448 59.5627C134.448 58.4533 133.952 57.984 132.629 57.9893C132.421 57.9893 132.208 58.0053 131.947 58.0213V61.216ZM131.947 66.1387C132.224 66.16 132.56 66.1867 132.784 66.1867C134.411 66.1867 135.035 65.5307 135.035 64.4373C135.035 63.152 134.112 62.8 132.779 62.8C132.533 62.8 132.213 62.8107 131.947 62.8373V66.1387ZM147.086 63.5947C147.096 64.7573 146.979 65.7013 146.702 66.4267C146.27 67.536 145.416 68.1227 143.95 68.1867C142.52 68.2507 141.411 67.888 140.899 66.5813C140.718 66.128 140.611 65.5573 140.574 64.848C140.51 63.6587 140.6 59.8987 140.622 57.344H139.432C138.851 57.344 138.531 56.9813 138.558 56.3733C138.579 55.744 138.915 55.4507 139.438 55.4507H142.814C142.755 58.4053 142.691 63.6267 142.76 64.5653C142.792 64.96 142.824 65.2107 142.888 65.424C143.022 65.9253 143.31 66.2667 143.896 66.2667C144.494 66.2667 144.787 65.8773 144.894 65.1787C144.952 64.7573 144.942 64.224 144.952 63.5947C144.963 62.9067 145.272 62.512 146.024 62.5067C146.712 62.5013 147.07 62.8853 147.086 63.5947ZM153.372 59.04C156.166 59.0453 157.457 60.6667 157.43 63.6533C157.403 66.496 155.798 68.1867 153.1 68.1867C150.299 68.1867 149.009 66.5867 149.041 63.632C149.078 60.656 150.668 59.04 153.372 59.04ZM153.238 60.7467C151.995 60.7467 151.323 61.728 151.313 63.632C151.302 65.488 151.942 66.464 153.206 66.464C154.465 66.464 155.148 65.488 155.158 63.6427C155.174 61.7333 154.497 60.7467 153.238 60.7467ZM166.036 65.8613C166.649 65.6053 167.039 65.8453 167.193 66.2453C167.348 66.6347 167.3 67.1307 166.804 67.4933C166.244 67.904 165.268 68.1813 164.084 68.1867C161.204 68.208 159.647 66.4693 159.647 63.712C159.647 60.7467 161.284 59.04 164.303 59.04C165.007 59.04 165.679 59.184 166.148 59.4133C166.639 59.648 166.948 59.92 166.964 60.416C166.985 61.0347 166.985 61.7227 166.975 62.176C166.948 62.832 166.505 63.104 165.897 63.0773C165.465 63.056 165.103 62.7893 165.103 62.032V60.9973C164.831 60.8427 164.447 60.832 163.993 60.8693C162.847 60.9547 161.903 61.8507 161.903 63.632C161.903 65.232 162.911 66.1227 164.292 66.16C165.076 66.1813 165.807 65.9467 166.036 65.8613ZM172.14 67.1627C172.14 67.7173 171.788 68.064 171.02 68.064C170.268 68.064 169.932 67.7173 169.932 67.088V56.1333C169.932 55.5573 170.316 55.232 170.988 55.232C171.831 55.232 172.124 55.5573 172.124 56.1333L172.14 67.1627ZM172.375 63.7973C172.284 63.68 172.231 63.5573 172.231 63.4293C172.231 63.296 172.279 63.168 172.38 63.04L174.956 59.648C175.346 59.1413 175.692 59.024 176.167 59.04C176.754 59.056 177.207 59.3173 177.271 59.616C177.33 59.8987 177.335 60.1173 177.01 60.512L174.69 63.3227L177.34 66.5707C177.644 66.9333 177.703 67.1627 177.628 67.4027C177.548 67.648 177.239 67.984 176.551 68.0267C175.938 68.064 175.511 67.8827 175.186 67.456L172.375 63.7973ZM186.053 59.472C186.559 59.68 186.677 60.1493 186.565 60.5813C186.437 61.072 185.951 61.2853 185.322 61.1253C184.97 61.056 184.213 60.8693 183.557 60.8853C182.714 60.9067 182.415 61.2053 182.378 61.5947C182.33 62.1173 182.719 62.272 183.647 62.5333C184.095 62.6613 184.607 62.7947 185.082 62.944C186.122 63.2747 186.805 63.9147 186.805 65.2853C186.805 67.0293 185.519 68.1867 183.082 68.1867C182.074 68.1867 181.082 67.9787 180.453 67.6053C180.005 67.3387 179.85 66.8107 180.005 66.3467C180.165 65.888 180.559 65.6693 181.13 65.872C181.567 66.0267 182.239 66.2453 183.183 66.2453C184.047 66.2507 184.426 66.112 184.485 65.5787C184.527 65.168 184.293 64.9227 183.845 64.768C183.365 64.5973 182.906 64.4747 182.415 64.3307C181.039 63.9147 180.154 63.2213 180.175 61.7387C180.197 60 181.626 59.04 183.429 59.04C184.437 59.04 185.311 59.1573 186.053 59.472Z" fill="black"/>
<path d="M153.779 152.293C153.848 152.283 154.392 152.235 155.555 152.235C158.125 152.229 159.645 152.891 159.645 155.077C159.645 156.608 158.691 157.477 157.16 157.744C159.549 157.845 160.339 159.131 160.339 160.645C160.339 162.832 158.68 164.096 155.523 164.043C154.435 164.021 154.056 164.016 153.784 163.995C153.171 163.952 152.808 163.664 152.808 162.624L152.803 153.819C152.803 152.709 153.165 152.357 153.779 152.293ZM154.947 157.216C155.059 157.221 155.139 157.221 155.24 157.221C156.787 157.221 157.448 156.613 157.448 155.563C157.448 154.453 156.952 153.984 155.629 153.989C155.421 153.989 155.208 154.005 154.947 154.021V157.216ZM154.947 162.139C155.224 162.16 155.56 162.187 155.784 162.187C157.411 162.187 158.035 161.531 158.035 160.437C158.035 159.152 157.112 158.8 155.779 158.8C155.533 158.8 155.213 158.811 154.947 158.837V162.139ZM170.086 159.595C170.096 160.757 169.979 161.701 169.702 162.427C169.27 163.536 168.416 164.123 166.95 164.187C165.52 164.251 164.411 163.888 163.899 162.581C163.718 162.128 163.611 161.557 163.574 160.848C163.51 159.659 163.6 155.899 163.622 153.344H162.432C161.851 153.344 161.531 152.981 161.558 152.373C161.579 151.744 161.915 151.451 162.438 151.451H165.814C165.755 154.405 165.691 159.627 165.76 160.565C165.792 160.96 165.824 161.211 165.888 161.424C166.022 161.925 166.31 162.267 166.896 162.267C167.494 162.267 167.787 161.877 167.894 161.179C167.952 160.757 167.942 160.224 167.952 159.595C167.963 158.907 168.272 158.512 169.024 158.507C169.712 158.501 170.07 158.885 170.086 159.595ZM176.372 155.04C179.166 155.045 180.457 156.667 180.43 159.653C180.403 162.496 178.798 164.187 176.1 164.187C173.299 164.187 172.009 162.587 172.041 159.632C172.078 156.656 173.668 155.04 176.372 155.04ZM176.238 156.747C174.995 156.747 174.323 157.728 174.313 159.632C174.302 161.488 174.942 162.464 176.206 162.464C177.465 162.464 178.148 161.488 178.158 159.643C178.174 157.733 177.497 156.747 176.238 156.747ZM189.036 161.861C189.649 161.605 190.039 161.845 190.193 162.245C190.348 162.635 190.3 163.131 189.804 163.493C189.244 163.904 188.268 164.181 187.084 164.187C184.204 164.208 182.647 162.469 182.647 159.712C182.647 156.747 184.284 155.04 187.303 155.04C188.007 155.04 188.679 155.184 189.148 155.413C189.639 155.648 189.948 155.92 189.964 156.416C189.985 157.035 189.985 157.723 189.975 158.176C189.948 158.832 189.505 159.104 188.897 159.077C188.465 159.056 188.103 158.789 188.103 158.032V156.997C187.831 156.843 187.447 156.832 186.993 156.869C185.847 156.955 184.903 157.851 184.903 159.632C184.903 161.232 185.911 162.123 187.292 162.16C188.076 162.181 188.807 161.947 189.036 161.861ZM195.14 163.163C195.14 163.717 194.788 164.064 194.02 164.064C193.268 164.064 192.932 163.717 192.932 163.088V152.133C192.932 151.557 193.316 151.232 193.988 151.232C194.831 151.232 195.124 151.557 195.124 152.133L195.14 163.163ZM195.375 159.797C195.284 159.68 195.231 159.557 195.231 159.429C195.231 159.296 195.279 159.168 195.38 159.04L197.956 155.648C198.346 155.141 198.692 155.024 199.167 155.04C199.754 155.056 200.207 155.317 200.271 155.616C200.33 155.899 200.335 156.117 200.01 156.512L197.69 159.323L200.34 162.571C200.644 162.933 200.703 163.163 200.628 163.403C200.548 163.648 200.239 163.984 199.551 164.027C198.938 164.064 198.511 163.883 198.186 163.456L195.375 159.797ZM209.053 155.472C209.559 155.68 209.677 156.149 209.565 156.581C209.437 157.072 208.951 157.285 208.322 157.125C207.97 157.056 207.213 156.869 206.557 156.885C205.714 156.907 205.415 157.205 205.378 157.595C205.33 158.117 205.719 158.272 206.647 158.533C207.095 158.661 207.607 158.795 208.082 158.944C209.122 159.275 209.805 159.915 209.805 161.285C209.805 163.029 208.519 164.187 206.082 164.187C205.074 164.187 204.082 163.979 203.453 163.605C203.005 163.339 202.85 162.811 203.005 162.347C203.165 161.888 203.559 161.669 204.13 161.872C204.567 162.027 205.239 162.245 206.183 162.245C207.047 162.251 207.426 162.112 207.485 161.579C207.527 161.168 207.293 160.923 206.845 160.768C206.365 160.597 205.906 160.475 205.415 160.331C204.039 159.915 203.154 159.221 203.175 157.739C203.197 156 204.626 155.04 206.429 155.04C207.437 155.04 208.311 155.157 209.053 155.472Z" fill="black"/>
<path d="M194.693 256.235C193.765 256.235 193.008 255.472 193.008 254.544C193.008 253.632 193.765 252.869 194.693 252.869C195.616 252.869 196.368 253.632 196.368 254.544C196.368 255.472 195.616 256.235 194.693 256.235ZM204.787 256.235C203.859 256.235 203.102 255.472 203.102 254.544C203.102 253.632 203.859 252.869 204.787 252.869C205.71 252.869 206.462 253.632 206.462 254.544C206.462 255.472 205.71 256.235 204.787 256.235ZM214.881 256.235C213.953 256.235 213.195 255.472 213.195 254.544C213.195 253.632 213.953 252.869 214.881 252.869C215.804 252.869 216.556 253.632 216.556 254.544C216.556 255.472 215.804 256.235 214.881 256.235Z" fill="black"/>
<path d="M140.342 104.336C139.979 105.797 139.697 106.832 139.329 107.483C139.131 107.829 138.843 108.053 138.177 108.059C137.366 108.064 137.019 107.845 136.817 106.923C136.646 106.128 136.246 102.528 136.107 100.619C136.075 100.272 136.043 99.8773 136.123 99.6107C136.225 99.3707 136.465 99.04 137.222 99.04C137.974 99.04 138.305 99.2907 138.337 100.037L138.534 105.765C138.545 105.979 138.747 105.925 138.785 105.765C139.19 104.064 139.43 102.693 139.686 102.261C139.883 101.931 140.091 101.76 140.55 101.755C141.019 101.749 141.265 101.888 141.446 102.24C141.659 102.645 141.91 104.059 142.251 105.781C142.294 105.979 142.481 105.968 142.497 105.765L142.907 100.107C142.971 99.296 143.302 99.04 144.043 99.04C144.603 99.04 145.019 99.232 145.105 99.6267C145.147 99.8667 145.121 100.128 145.089 100.448C144.913 102.677 144.267 106.203 143.99 107.141C143.825 107.712 143.515 108.053 142.774 108.059C142.049 108.064 141.825 107.819 141.617 107.419C141.302 106.821 141.078 105.781 140.625 104.315C140.571 104.133 140.39 104.133 140.342 104.336ZM150.937 97.6533C150.02 97.6533 149.305 96.944 149.305 96.0907C149.305 95.2427 150.02 94.528 150.937 94.528C151.849 94.528 152.558 95.2427 152.558 96.0907C152.558 96.944 151.849 97.6533 150.937 97.6533ZM151.07 99.2427C152.014 99.2427 152.276 99.584 152.276 100.491C152.276 102.288 152.254 103.829 152.27 106.197H153.993C154.537 106.197 154.937 106.379 154.937 106.997C154.937 107.707 154.532 108 153.993 108H148.276C147.636 108 147.246 107.787 147.246 107.083C147.246 106.464 147.63 106.197 148.276 106.197H150.094C150.132 104.021 150.132 103.344 150.094 101.035H148.404C147.652 101.035 147.326 100.773 147.326 100.171C147.326 99.5467 147.646 99.2427 148.404 99.2427H151.07ZM160.339 99.2427H162.782C163.401 99.2427 163.705 99.4293 163.737 100.053C163.764 100.704 163.449 101.035 162.782 101.035H160.339C160.297 102.309 160.292 104.373 160.372 105.179C160.398 105.509 160.446 105.749 160.548 105.925C160.707 106.224 160.974 106.368 161.401 106.368C162.137 106.379 162.425 105.733 162.409 104.896C162.393 104.245 162.649 103.915 163.396 103.915C163.977 103.915 164.302 104.213 164.313 104.896C164.35 107.803 162.574 108.176 161.257 108.187C160.126 108.197 159.171 107.995 158.633 107.115C158.334 106.619 158.19 105.909 158.148 104.96C158.11 103.835 158.142 102.309 158.142 101.035H156.531C155.913 101.035 155.593 100.779 155.604 100.133C155.609 99.5147 155.939 99.2427 156.531 99.2427H158.142L158.169 97.6853C158.179 96.992 158.521 96.6347 159.283 96.6347C160.03 96.6347 160.387 96.9813 160.377 97.6853L160.339 99.2427ZM174.076 107.072C174.076 107.733 173.692 108.059 172.913 108.059C172.145 108.059 171.761 107.733 171.761 107.072C171.761 105.568 171.777 103.6 171.729 102.576C171.665 101.301 171.185 100.971 170.503 100.971C169.553 100.971 168.993 101.424 168.924 103.072C168.881 104.096 168.924 105.728 168.924 107.077C168.924 107.733 168.561 108.059 167.729 108.059C167.02 108.059 166.615 107.733 166.615 107.077V96.3467C166.615 95.632 166.967 95.232 167.815 95.232C168.551 95.232 168.897 95.632 168.892 96.3467L168.865 100.832C169.367 99.6427 170.215 99.0293 171.361 99.0293C173.121 99.0293 174.076 100.123 174.076 102.576V107.072ZM180.687 97.6533C179.77 97.6533 179.055 96.944 179.055 96.0907C179.055 95.2427 179.77 94.528 180.687 94.528C181.599 94.528 182.308 95.2427 182.308 96.0907C182.308 96.944 181.599 97.6533 180.687 97.6533ZM180.82 99.2427C181.764 99.2427 182.026 99.584 182.026 100.491C182.026 102.288 182.004 103.829 182.02 106.197H183.743C184.287 106.197 184.687 106.379 184.687 106.997C184.687 107.707 184.282 108 183.743 108H178.026C177.386 108 176.996 107.787 176.996 107.083C176.996 106.464 177.38 106.197 178.026 106.197H179.844C179.882 104.021 179.882 103.344 179.844 101.035H178.154C177.402 101.035 177.076 100.773 177.076 100.171C177.076 99.5467 177.396 99.2427 178.154 99.2427H180.82ZM194.189 107.035C194.189 107.76 193.799 108.075 193.069 108.064C192.381 108.059 192.002 107.829 192.002 107.109C192.002 106.197 192.013 105.104 192.013 104C192.013 103.387 192.029 102.816 191.997 102.421C191.927 101.296 191.447 100.885 190.626 100.885C189.81 100.885 189.133 101.488 189.095 102.576C189.079 103.189 189.074 103.936 189.069 104.736C189.058 105.637 189.063 106.432 189.063 107.099C189.063 107.829 188.679 108.064 188.007 108.064C187.261 108.064 186.882 107.835 186.882 107.029V100.101C186.882 99.28 187.277 99.072 188.013 99.072C188.685 99.072 189.069 99.2853 189.069 100.021L189.074 100.827C189.581 99.6 190.455 99.04 191.485 99.04C193.351 99.04 194.098 100.203 194.173 102.293C194.199 102.853 194.199 103.296 194.199 103.829C194.199 104.896 194.189 106.133 194.189 107.035Z" fill="black"/>
<path d="M158.342 200.336C157.979 201.797 157.697 202.832 157.329 203.483C157.131 203.829 156.843 204.053 156.177 204.059C155.366 204.064 155.019 203.845 154.817 202.923C154.646 202.128 154.246 198.528 154.107 196.619C154.075 196.272 154.043 195.877 154.123 195.611C154.225 195.371 154.465 195.04 155.222 195.04C155.974 195.04 156.305 195.291 156.337 196.037L156.534 201.765C156.545 201.979 156.747 201.925 156.785 201.765C157.19 200.064 157.43 198.693 157.686 198.261C157.883 197.931 158.091 197.76 158.55 197.755C159.019 197.749 159.265 197.888 159.446 198.24C159.659 198.645 159.91 200.059 160.251 201.781C160.294 201.979 160.481 201.968 160.497 201.765L160.907 196.107C160.971 195.296 161.302 195.04 162.043 195.04C162.603 195.04 163.019 195.232 163.105 195.627C163.147 195.867 163.121 196.128 163.089 196.448C162.913 198.677 162.267 202.203 161.99 203.141C161.825 203.712 161.515 204.053 160.774 204.059C160.049 204.064 159.825 203.819 159.617 203.419C159.302 202.821 159.078 201.781 158.625 200.315C158.571 200.133 158.39 200.133 158.342 200.336ZM168.937 193.653C168.02 193.653 167.305 192.944 167.305 192.091C167.305 191.243 168.02 190.528 168.937 190.528C169.849 190.528 170.558 191.243 170.558 192.091C170.558 192.944 169.849 193.653 168.937 193.653ZM169.07 195.243C170.014 195.243 170.276 195.584 170.276 196.491C170.276 198.288 170.254 199.829 170.27 202.197H171.993C172.537 202.197 172.937 202.379 172.937 202.997C172.937 203.707 172.532 204 171.993 204H166.276C165.636 204 165.246 203.787 165.246 203.083C165.246 202.464 165.63 202.197 166.276 202.197H168.094C168.132 200.021 168.132 199.344 168.094 197.035H166.404C165.652 197.035 165.326 196.773 165.326 196.171C165.326 195.547 165.646 195.243 166.404 195.243H169.07ZM178.339 195.243H180.782C181.401 195.243 181.705 195.429 181.737 196.053C181.764 196.704 181.449 197.035 180.782 197.035H178.339C178.297 198.309 178.292 200.373 178.372 201.179C178.398 201.509 178.446 201.749 178.548 201.925C178.707 202.224 178.974 202.368 179.401 202.368C180.137 202.379 180.425 201.733 180.409 200.896C180.393 200.245 180.649 199.915 181.396 199.915C181.977 199.915 182.302 200.213 182.313 200.896C182.35 203.803 180.574 204.176 179.257 204.187C178.126 204.197 177.171 203.995 176.633 203.115C176.334 202.619 176.19 201.909 176.148 200.96C176.11 199.835 176.142 198.309 176.142 197.035H174.531C173.913 197.035 173.593 196.779 173.604 196.133C173.609 195.515 173.939 195.243 174.531 195.243H176.142L176.169 193.685C176.179 192.992 176.521 192.635 177.283 192.635C178.03 192.635 178.387 192.981 178.377 193.685L178.339 195.243ZM192.076 203.072C192.076 203.733 191.692 204.059 190.913 204.059C190.145 204.059 189.761 203.733 189.761 203.072C189.761 201.568 189.777 199.6 189.729 198.576C189.665 197.301 189.185 196.971 188.503 196.971C187.553 196.971 186.993 197.424 186.924 199.072C186.881 200.096 186.924 201.728 186.924 203.077C186.924 203.733 186.561 204.059 185.729 204.059C185.02 204.059 184.615 203.733 184.615 203.077V192.347C184.615 191.632 184.967 191.232 185.815 191.232C186.551 191.232 186.897 191.632 186.892 192.347L186.865 196.832C187.367 195.643 188.215 195.029 189.361 195.029C191.121 195.029 192.076 196.123 192.076 198.576V203.072ZM198.687 193.653C197.77 193.653 197.055 192.944 197.055 192.091C197.055 191.243 197.77 190.528 198.687 190.528C199.599 190.528 200.308 191.243 200.308 192.091C200.308 192.944 199.599 193.653 198.687 193.653ZM198.82 195.243C199.764 195.243 200.026 195.584 200.026 196.491C200.026 198.288 200.004 199.829 200.02 202.197H201.743C202.287 202.197 202.687 202.379 202.687 202.997C202.687 203.707 202.282 204 201.743 204H196.026C195.386 204 194.996 203.787 194.996 203.083C194.996 202.464 195.38 202.197 196.026 202.197H197.844C197.882 200.021 197.882 199.344 197.844 197.035H196.154C195.402 197.035 195.076 196.773 195.076 196.171C195.076 195.547 195.396 195.243 196.154 195.243H198.82ZM212.189 203.035C212.189 203.76 211.799 204.075 211.069 204.064C210.381 204.059 210.002 203.829 210.002 203.109C210.002 202.197 210.013 201.104 210.013 200C210.013 199.387 210.029 198.816 209.997 198.421C209.927 197.296 209.447 196.885 208.626 196.885C207.81 196.885 207.133 197.488 207.095 198.576C207.079 199.189 207.074 199.936 207.069 200.736C207.058 201.637 207.063 202.432 207.063 203.099C207.063 203.829 206.679 204.064 206.007 204.064C205.261 204.064 204.882 203.835 204.882 203.029V196.101C204.882 195.28 205.277 195.072 206.013 195.072C206.685 195.072 207.069 195.285 207.069 196.021L207.074 196.827C207.581 195.6 208.455 195.04 209.485 195.04C211.351 195.04 212.098 196.203 212.173 198.293C212.199 198.853 212.199 199.296 212.199 199.829C212.199 200.896 212.189 202.133 212.189 203.035Z" fill="black"/>
</svg>
