<svg width="200" height="200" viewBox="0 0 200 200" fill="none" xmlns="http://www.w3.org/2000/svg">
<path d="M50.8367 73.0612V97.7551H75.5306M50.8367 73.0612H63.1836M50.8367 73.0612H37.3673M50.5918 124.694V151.633H75.5306M60.9387 124.694H37.3673V73.0612M37.3673 48.3673V73.0612" stroke="black"/>
<circle cx="64.3061" cy="73.0612" r="3.36735" fill="black"/>
<circle cx="37.3673" cy="48.3673" r="3.36735" fill="black"/>
<circle cx="76.653" cy="97.755" r="3.36735" fill="black"/>
<circle cx="61.1632" cy="124.694" r="3.36735" fill="black"/>
<circle cx="77.1632" cy="151.633" r="3.36735" fill="black"/>
<path d="M45.5559 51.09C45.1692 51.09 44.8326 51.03 44.5459 50.91C44.2659 50.7833 44.0492 50.6033 43.8959 50.37C43.7492 50.1367 43.6692 49.8567 43.6559 49.53H44.4559C44.4692 49.7967 44.5726 50.0067 44.7659 50.16C44.9592 50.3133 45.2226 50.39 45.5559 50.39H46.0659C46.4126 50.39 46.6792 50.3133 46.8659 50.16C47.0592 50 47.1559 49.78 47.1559 49.5C47.1559 49.2467 47.0926 49.0433 46.9659 48.89C46.8459 48.73 46.6659 48.6367 46.4259 48.61L44.9859 48.41C44.5926 48.35 44.2826 48.1967 44.0559 47.95C43.8359 47.6967 43.7259 47.36 43.7259 46.94C43.7259 46.4667 43.8892 46.0933 44.2159 45.82C44.5426 45.5467 44.9892 45.41 45.5559 45.41H46.0259C46.5459 45.41 46.9726 45.54 47.3059 45.8C47.6392 46.06 47.8226 46.4 47.8559 46.82H47.0559C47.0359 46.6133 46.9326 46.44 46.7459 46.3C46.5592 46.16 46.3192 46.09 46.0259 46.09H45.5559C45.2292 46.09 44.9726 46.1667 44.7859 46.32C44.5992 46.4733 44.5059 46.68 44.5059 46.94C44.5059 47.1467 44.5626 47.3133 44.6759 47.44C44.7959 47.5667 44.9626 47.6433 45.1759 47.67L46.5359 47.86C46.9892 47.92 47.3359 48.09 47.5759 48.37C47.8159 48.65 47.9359 49.02 47.9359 49.48C47.9359 49.98 47.7692 50.3733 47.4359 50.66C47.1092 50.9467 46.6526 51.09 46.0659 51.09H45.5559ZM49.962 51V45.5H50.762V46.52H50.932L50.732 46.85C50.732 46.4033 50.8653 46.05 51.132 45.79C51.3987 45.53 51.7687 45.4 52.242 45.4C52.822 45.4 53.2653 45.5733 53.572 45.92C53.8787 46.26 54.032 46.7433 54.032 47.37V47.85H53.242V47.37C53.242 46.9433 53.1353 46.6233 52.922 46.41C52.7153 46.1967 52.412 46.09 52.012 46.09C51.6053 46.09 51.2953 46.21 51.082 46.45C50.8687 46.6833 50.762 47.0233 50.762 47.47V51H49.962ZM57.8681 51.1C57.4414 51.1 57.0681 51.0167 56.7481 50.85C56.4281 50.6833 56.1781 50.4467 55.9981 50.14C55.8181 49.8267 55.7281 49.4567 55.7281 49.03V47.47C55.7281 47.0433 55.8181 46.6767 55.9981 46.37C56.1781 46.0567 56.4281 45.8167 56.7481 45.65C57.0681 45.4833 57.4414 45.4 57.8681 45.4C58.4948 45.4 58.9981 45.57 59.3781 45.91C59.7648 46.25 59.9648 46.7133 59.9781 47.3H59.1781C59.1648 46.92 59.0414 46.6267 58.8081 46.42C58.5814 46.2133 58.2681 46.11 57.8681 46.11C57.4614 46.11 57.1348 46.23 56.8881 46.47C56.6481 46.7033 56.5281 47.0367 56.5281 47.47V49.03C56.5281 49.4567 56.6481 49.79 56.8881 50.03C57.1348 50.27 57.4614 50.39 57.8681 50.39C58.2681 50.39 58.5814 50.2867 58.8081 50.08C59.0414 49.8667 59.1648 49.5733 59.1781 49.2H59.9781C59.9648 49.7867 59.7648 50.25 59.3781 50.59C58.9981 50.93 58.4948 51.1 57.8681 51.1Z" fill="black"/>
<path d="M76.5659 76C76.2526 76 75.9792 75.94 75.7459 75.82C75.5192 75.7 75.3426 75.5267 75.2159 75.3C75.0892 75.0733 75.0259 74.8067 75.0259 74.5V69.42H73.1459V68.7H75.8159V74.5C75.8159 74.7467 75.8826 74.94 76.0159 75.08C76.1492 75.2133 76.3326 75.28 76.5659 75.28H78.2659V76H76.5659ZM79.672 76V75.28H81.632V71.22H79.882V70.5H82.432V75.28H84.292V76H79.672ZM81.942 69.49C81.7353 69.49 81.5687 69.4367 81.442 69.33C81.322 69.2233 81.262 69.0767 81.262 68.89C81.262 68.6967 81.322 68.5433 81.442 68.43C81.5687 68.3167 81.7353 68.26 81.942 68.26C82.1487 68.26 82.312 68.3167 82.432 68.43C82.5587 68.5433 82.622 68.6967 82.622 68.89C82.622 69.07 82.5587 69.2167 82.432 69.33C82.312 69.4367 82.1487 69.49 81.942 69.49ZM88.0581 76.1C87.5981 76.1 87.2248 75.9767 86.9381 75.73C86.6581 75.4767 86.5181 75.1333 86.5181 74.7L86.7181 74.98H86.5481V76H85.7581V68.7H86.5481V70.27L86.5381 71.52H86.7281L86.5081 71.8C86.5081 71.3733 86.6514 71.0333 86.9381 70.78C87.2314 70.5267 87.6048 70.4 88.0581 70.4C88.6114 70.4 89.0514 70.5833 89.3781 70.95C89.7048 71.3167 89.8681 71.8133 89.8681 72.44V74.07C89.8681 74.69 89.7048 75.1833 89.3781 75.55C89.0514 75.9167 88.6114 76.1 88.0581 76.1ZM87.8081 75.41C88.2081 75.41 88.5181 75.3 88.7381 75.08C88.9648 74.86 89.0781 74.5233 89.0781 74.07V72.44C89.0781 71.9733 88.9648 71.6333 88.7381 71.42C88.5181 71.2 88.2081 71.09 87.8081 71.09C87.4214 71.09 87.1148 71.2133 86.8881 71.46C86.6614 71.7 86.5481 72.0367 86.5481 72.47V74.03C86.5481 74.4633 86.6614 74.8033 86.8881 75.05C87.1148 75.29 87.4214 75.41 87.8081 75.41Z" fill="black"/>
<path d="M85.8359 101.1C85.3826 101.1 84.9826 101.017 84.6359 100.85C84.2892 100.677 84.0192 100.433 83.8259 100.12C83.6392 99.8 83.5459 99.4267 83.5459 99H84.3459C84.3459 99.4267 84.4826 99.7667 84.7559 100.02C85.0292 100.267 85.3892 100.39 85.8359 100.39C86.2692 100.39 86.6159 100.267 86.8759 100.02C87.1359 99.7733 87.2659 99.45 87.2659 99.05C87.2659 98.7367 87.1792 98.4633 87.0059 98.23C86.8392 97.99 86.6026 97.8267 86.2959 97.74L85.2059 97.43C84.7526 97.2967 84.3926 97.06 84.1259 96.72C83.8659 96.3733 83.7359 95.97 83.7359 95.51C83.7359 95.13 83.8192 94.7967 83.9859 94.51C84.1592 94.2233 84.3992 94 84.7059 93.84C85.0192 93.68 85.3792 93.6 85.7859 93.6C86.1926 93.6 86.5526 93.6833 86.8659 93.85C87.1792 94.01 87.4226 94.2367 87.5959 94.53C87.7759 94.8167 87.8659 95.1533 87.8659 95.54H87.0759C87.0759 95.1733 86.9559 94.8767 86.7159 94.65C86.4759 94.4167 86.1659 94.3 85.7859 94.3C85.4059 94.3 85.0992 94.41 84.8659 94.63C84.6326 94.85 84.5159 95.1367 84.5159 95.49C84.5159 95.7767 84.5926 96.0233 84.7459 96.23C84.9059 96.4367 85.1226 96.5833 85.3959 96.67L86.5059 96.99C86.9859 97.1233 87.3626 97.3767 87.6359 97.75C87.9092 98.1167 88.0459 98.55 88.0459 99.05C88.0459 99.4633 87.9526 99.8233 87.7659 100.13C87.5859 100.437 87.3292 100.677 86.9959 100.85C86.6692 101.017 86.2826 101.1 85.8359 101.1ZM91.272 101L89.402 95.5H90.252L91.512 99.31C91.5787 99.5167 91.6387 99.72 91.692 99.92C91.7453 100.12 91.7853 100.277 91.812 100.39C91.8387 100.277 91.8753 100.12 91.922 99.92C91.9753 99.72 92.032 99.5167 92.092 99.31L93.342 95.5H94.182L92.312 101H91.272ZM97.7881 101.1C97.3614 101.1 96.9914 101.013 96.6781 100.84C96.3648 100.667 96.1214 100.42 95.9481 100.1C95.7748 99.7733 95.6881 99.39 95.6881 98.95V97.55C95.6881 97.1033 95.7748 96.72 95.9481 96.4C96.1214 96.08 96.3648 95.8333 96.6781 95.66C96.9914 95.4867 97.3614 95.4 97.7881 95.4C98.2148 95.4 98.5848 95.4867 98.8981 95.66C99.2114 95.8267 99.4548 96.0667 99.6281 96.38C99.8014 96.6867 99.8881 97.05 99.8881 97.47V98.45H96.4581V99.03C96.4581 99.4567 96.5781 99.7933 96.8181 100.04C97.0581 100.287 97.3814 100.41 97.7881 100.41C98.1348 100.41 98.4214 100.34 98.6481 100.2C98.8748 100.053 99.0114 99.8567 99.0581 99.61H99.8481C99.7881 100.07 99.5714 100.433 99.1981 100.7C98.8248 100.967 98.3548 101.1 97.7881 101.1ZM99.1181 97.91V97.47C99.1181 97.0233 99.0014 96.6767 98.7681 96.43C98.5348 96.1833 98.2081 96.06 97.7881 96.06C97.3681 96.06 97.0414 96.1833 96.8081 96.43C96.5748 96.6767 96.4581 97.0233 96.4581 97.47V97.82H99.1981L99.1181 97.91ZM103.514 101.1C102.968 101.1 102.528 100.917 102.194 100.55C101.868 100.183 101.704 99.69 101.704 99.07V97.44C101.704 96.8133 101.868 96.3167 102.194 95.95C102.521 95.5833 102.961 95.4 103.514 95.4C103.974 95.4 104.348 95.5267 104.634 95.78C104.921 96.0333 105.064 96.3733 105.064 96.8L104.844 96.52H105.034L105.024 95.27V93.7H105.814V101H105.024V99.98H104.844L105.054 99.7C105.054 100.133 104.911 100.477 104.624 100.73C104.344 100.977 103.974 101.1 103.514 101.1ZM103.764 100.41C104.158 100.41 104.464 100.29 104.684 100.05C104.911 99.8033 105.024 99.4633 105.024 99.03V97.47C105.024 97.0367 104.911 96.7 104.684 96.46C104.464 96.2133 104.158 96.09 103.764 96.09C103.364 96.09 103.051 96.2 102.824 96.42C102.604 96.6333 102.494 96.9733 102.494 97.44V99.07C102.494 99.5233 102.604 99.86 102.824 100.08C103.051 100.3 103.364 100.41 103.764 100.41ZM107.66 101V100.28H109.62V96.22H107.87V95.5H110.42V100.28H112.28V101H107.66ZM109.93 94.49C109.724 94.49 109.557 94.4367 109.43 94.33C109.31 94.2233 109.25 94.0767 109.25 93.89C109.25 93.6967 109.31 93.5433 109.43 93.43C109.557 93.3167 109.724 93.26 109.93 93.26C110.137 93.26 110.3 93.3167 110.42 93.43C110.547 93.5433 110.61 93.6967 110.61 93.89C110.61 94.07 110.547 94.2167 110.42 94.33C110.3 94.4367 110.137 94.49 109.93 94.49ZM116.326 101C115.88 101 115.526 100.877 115.266 100.63C115.006 100.377 114.876 100.033 114.876 99.6V96.22H113.286V95.5H114.876V93.95H115.676V95.5H117.936V96.22H115.676V99.6C115.676 99.8067 115.733 99.9733 115.846 100.1C115.966 100.22 116.126 100.28 116.326 100.28H117.886V101H116.326Z" fill="black"/>
<path d="M121.772 101.1C121.532 101.1 121.339 101.03 121.192 100.89C121.046 100.743 120.972 100.553 120.972 100.32C120.972 100.08 121.046 99.8867 121.192 99.74C121.339 99.5933 121.532 99.52 121.772 99.52C122.012 99.52 122.206 99.5933 122.352 99.74C122.499 99.8867 122.572 100.08 122.572 100.32C122.572 100.553 122.499 100.743 122.352 100.89C122.206 101.03 122.012 101.1 121.772 101.1ZM127.529 101.09C127.142 101.09 126.805 101.03 126.519 100.91C126.239 100.783 126.022 100.603 125.869 100.37C125.722 100.137 125.642 99.8567 125.629 99.53H126.429C126.442 99.7967 126.545 100.007 126.739 100.16C126.932 100.313 127.195 100.39 127.529 100.39H128.039C128.385 100.39 128.652 100.313 128.839 100.16C129.032 100 129.129 99.78 129.129 99.5C129.129 99.2467 129.065 99.0433 128.939 98.89C128.819 98.73 128.639 98.6367 128.399 98.61L126.959 98.41C126.565 98.35 126.255 98.1967 126.029 97.95C125.809 97.6967 125.699 97.36 125.699 96.94C125.699 96.4667 125.862 96.0933 126.189 95.82C126.515 95.5467 126.962 95.41 127.529 95.41H127.999C128.519 95.41 128.945 95.54 129.279 95.8C129.612 96.06 129.795 96.4 129.829 96.82H129.029C129.009 96.6133 128.905 96.44 128.719 96.3C128.532 96.16 128.292 96.09 127.999 96.09H127.529C127.202 96.09 126.945 96.1667 126.759 96.32C126.572 96.4733 126.479 96.68 126.479 96.94C126.479 97.1467 126.535 97.3133 126.649 97.44C126.769 97.5667 126.935 97.6433 127.149 97.67L128.509 97.86C128.962 97.92 129.309 98.09 129.549 98.37C129.789 98.65 129.909 99.02 129.909 99.48C129.909 99.98 129.742 100.373 129.409 100.66C129.082 100.947 128.625 101.09 128.039 101.09H127.529ZM133.245 101L131.375 95.5H132.225L133.485 99.31C133.551 99.5167 133.611 99.72 133.665 99.92C133.718 100.12 133.758 100.277 133.785 100.39C133.811 100.277 133.848 100.12 133.895 99.92C133.948 99.72 134.005 99.5167 134.065 99.31L135.315 95.5H136.155L134.285 101H133.245ZM139.761 101.1C139.334 101.1 138.964 101.013 138.651 100.84C138.337 100.667 138.094 100.42 137.921 100.1C137.747 99.7733 137.661 99.39 137.661 98.95V97.55C137.661 97.1033 137.747 96.72 137.921 96.4C138.094 96.08 138.337 95.8333 138.651 95.66C138.964 95.4867 139.334 95.4 139.761 95.4C140.187 95.4 140.557 95.4867 140.871 95.66C141.184 95.8267 141.427 96.0667 141.601 96.38C141.774 96.6867 141.861 97.05 141.861 97.47V98.45H138.431V99.03C138.431 99.4567 138.551 99.7933 138.791 100.04C139.031 100.287 139.354 100.41 139.761 100.41C140.107 100.41 140.394 100.34 140.621 100.2C140.847 100.053 140.984 99.8567 141.031 99.61H141.821C141.761 100.07 141.544 100.433 141.171 100.7C140.797 100.967 140.327 101.1 139.761 101.1ZM141.091 97.91V97.47C141.091 97.0233 140.974 96.6767 140.741 96.43C140.507 96.1833 140.181 96.06 139.761 96.06C139.341 96.06 139.014 96.1833 138.781 96.43C138.547 96.6767 138.431 97.0233 138.431 97.47V97.82H141.171L141.091 97.91ZM146.527 101C146.214 101 145.94 100.94 145.707 100.82C145.48 100.7 145.304 100.527 145.177 100.3C145.05 100.073 144.987 99.8067 144.987 99.5V94.42H143.107V93.7H145.777V99.5C145.777 99.7467 145.844 99.94 145.977 100.08C146.11 100.213 146.294 100.28 146.527 100.28H148.227V101H146.527ZM152.303 101C151.856 101 151.503 100.877 151.243 100.63C150.983 100.377 150.853 100.033 150.853 99.6V96.22H149.263V95.5H150.853V93.95H151.653V95.5H153.913V96.22H151.653V99.6C151.653 99.8067 151.71 99.9733 151.823 100.1C151.943 100.22 152.103 100.28 152.303 100.28H153.863V101H152.303ZM157.749 101.1C157.322 101.1 156.952 101.013 156.639 100.84C156.326 100.667 156.082 100.42 155.909 100.1C155.736 99.7733 155.649 99.39 155.649 98.95V97.55C155.649 97.1033 155.736 96.72 155.909 96.4C156.082 96.08 156.326 95.8333 156.639 95.66C156.952 95.4867 157.322 95.4 157.749 95.4C158.176 95.4 158.546 95.4867 158.859 95.66C159.172 95.8267 159.416 96.0667 159.589 96.38C159.762 96.6867 159.849 97.05 159.849 97.47V98.45H156.419V99.03C156.419 99.4567 156.539 99.7933 156.779 100.04C157.019 100.287 157.342 100.41 157.749 100.41C158.096 100.41 158.382 100.34 158.609 100.2C158.836 100.053 158.972 99.8567 159.019 99.61H159.809C159.749 100.07 159.532 100.433 159.159 100.7C158.786 100.967 158.316 101.1 157.749 101.1ZM159.079 97.91V97.47C159.079 97.0233 158.962 96.6767 158.729 96.43C158.496 96.1833 158.169 96.06 157.749 96.06C157.329 96.06 157.002 96.1833 156.769 96.43C156.536 96.6767 156.419 97.0233 156.419 97.47V97.82H159.159L159.079 97.91Z" fill="#FF3F00"/>
<path d="M83.7759 155V147.7H84.5659V150.86H87.0259V147.7H87.8159V155H87.0259V151.58H84.5659V155H83.7759ZM91.792 155.1C91.3653 155.1 90.9953 155.013 90.682 154.84C90.3687 154.667 90.1253 154.42 89.952 154.1C89.7787 153.773 89.692 153.39 89.692 152.95V151.55C89.692 151.103 89.7787 150.72 89.952 150.4C90.1253 150.08 90.3687 149.833 90.682 149.66C90.9953 149.487 91.3653 149.4 91.792 149.4C92.2187 149.4 92.5887 149.487 92.902 149.66C93.2153 149.827 93.4587 150.067 93.632 150.38C93.8053 150.687 93.892 151.05 93.892 151.47V152.45H90.462V153.03C90.462 153.457 90.582 153.793 90.822 154.04C91.062 154.287 91.3853 154.41 91.792 154.41C92.1387 154.41 92.4253 154.34 92.652 154.2C92.8787 154.053 93.0153 153.857 93.062 153.61H93.852C93.792 154.07 93.5753 154.433 93.202 154.7C92.8287 154.967 92.3587 155.1 91.792 155.1ZM93.122 151.91V151.47C93.122 151.023 93.0053 150.677 92.772 150.43C92.5387 150.183 92.212 150.06 91.792 150.06C91.372 150.06 91.0453 150.183 90.812 150.43C90.5787 150.677 90.462 151.023 90.462 151.47V151.82H93.202L93.122 151.91ZM97.3481 155.1C96.7814 155.1 96.3314 154.943 95.9981 154.63C95.6714 154.31 95.5081 153.897 95.5081 153.39C95.5081 153.057 95.5814 152.767 95.7281 152.52C95.8748 152.267 96.0814 152.07 96.3481 151.93C96.6214 151.783 96.9314 151.71 97.2781 151.71H99.0281V151.25C99.0281 150.863 98.9248 150.573 98.7181 150.38C98.5114 150.187 98.2081 150.09 97.8081 150.09C97.4414 150.09 97.1448 150.163 96.9181 150.31C96.6914 150.457 96.5714 150.653 96.5581 150.9H95.7681C95.8014 150.46 95.9981 150.1 96.3581 149.82C96.7248 149.54 97.2081 149.4 97.8081 149.4C98.4548 149.4 98.9514 149.56 99.2981 149.88C99.6448 150.2 99.8181 150.65 99.8181 151.23V155H99.0381V153.97H98.8981L99.0481 153.74C99.0481 154.013 98.9781 154.253 98.8381 154.46C98.7048 154.66 98.5081 154.817 98.2481 154.93C97.9948 155.043 97.6948 155.1 97.3481 155.1ZM97.5481 154.42C98.0014 154.42 98.3614 154.31 98.6281 154.09C98.8948 153.863 99.0281 153.557 99.0281 153.17V152.34H97.3481C97.0414 152.34 96.7914 152.433 96.5981 152.62C96.4048 152.807 96.3081 153.053 96.3081 153.36C96.3081 153.68 96.4181 153.937 96.6381 154.13C96.8581 154.323 97.1614 154.42 97.5481 154.42ZM103.514 155.1C102.968 155.1 102.528 154.917 102.194 154.55C101.868 154.183 101.704 153.69 101.704 153.07V151.44C101.704 150.813 101.868 150.317 102.194 149.95C102.521 149.583 102.961 149.4 103.514 149.4C103.974 149.4 104.348 149.527 104.634 149.78C104.921 150.033 105.064 150.373 105.064 150.8L104.844 150.52H105.034L105.024 149.27V147.7H105.814V155H105.024V153.98H104.844L105.054 153.7C105.054 154.133 104.911 154.477 104.624 154.73C104.344 154.977 103.974 155.1 103.514 155.1ZM103.764 154.41C104.158 154.41 104.464 154.29 104.684 154.05C104.911 153.803 105.024 153.463 105.024 153.03V151.47C105.024 151.037 104.911 150.7 104.684 150.46C104.464 150.213 104.158 150.09 103.764 150.09C103.364 150.09 103.051 150.2 102.824 150.42C102.604 150.633 102.494 150.973 102.494 151.44V153.07C102.494 153.523 102.604 153.86 102.824 154.08C103.051 154.3 103.364 154.41 103.764 154.41ZM107.66 155V154.28H109.62V150.22H107.87V149.5H110.42V154.28H112.28V155H107.66ZM109.93 148.49C109.724 148.49 109.557 148.437 109.43 148.33C109.31 148.223 109.25 148.077 109.25 147.89C109.25 147.697 109.31 147.543 109.43 147.43C109.557 147.317 109.724 147.26 109.93 147.26C110.137 147.26 110.3 147.317 110.42 147.43C110.547 147.543 110.61 147.697 110.61 147.89C110.61 148.07 110.547 148.217 110.42 148.33C110.3 148.437 110.137 148.49 109.93 148.49ZM113.746 155V149.5H114.536V150.52H114.716L114.516 150.81C114.516 150.363 114.65 150.017 114.916 149.77C115.183 149.523 115.553 149.4 116.026 149.4C116.573 149.4 117.01 149.573 117.336 149.92C117.663 150.26 117.826 150.723 117.826 151.31V155H117.036V151.44C117.036 151 116.926 150.663 116.706 150.43C116.486 150.19 116.186 150.07 115.806 150.07C115.413 150.07 115.103 150.193 114.876 150.44C114.65 150.687 114.536 151.03 114.536 151.47V155H113.746ZM120.412 156.8V156.08H121.942C122.276 156.08 122.536 155.987 122.722 155.8C122.909 155.62 123.002 155.367 123.002 155.04V154.55L123.022 153.59H122.842L123.032 153.28C123.032 153.693 122.896 154.02 122.622 154.26C122.349 154.493 121.982 154.61 121.522 154.61C120.962 154.61 120.519 154.43 120.192 154.07C119.866 153.71 119.702 153.22 119.702 152.6V151.43C119.702 150.81 119.866 150.317 120.192 149.95C120.519 149.583 120.962 149.4 121.522 149.4C121.982 149.4 122.349 149.523 122.622 149.77C122.896 150.01 123.032 150.337 123.032 150.75L122.852 150.45H123.012V149.5H123.792V155.04C123.792 155.593 123.629 156.023 123.302 156.33C122.976 156.643 122.519 156.8 121.932 156.8H120.412ZM121.752 153.95C122.146 153.95 122.452 153.83 122.672 153.59C122.899 153.343 123.012 153.003 123.012 152.57V151.47C123.012 151.037 122.899 150.7 122.672 150.46C122.452 150.213 122.146 150.09 121.752 150.09C121.352 150.09 121.042 150.207 120.822 150.44C120.602 150.673 120.492 150.993 120.492 151.4V152.64C120.492 153.04 120.602 153.36 120.822 153.6C121.042 153.833 121.352 153.95 121.752 153.95Z" fill="black"/>
<path d="M127.769 155.1C127.529 155.1 127.335 155.03 127.189 154.89C127.042 154.743 126.969 154.553 126.969 154.32C126.969 154.08 127.042 153.887 127.189 153.74C127.335 153.593 127.529 153.52 127.769 153.52C128.009 153.52 128.202 153.593 128.349 153.74C128.495 153.887 128.569 154.08 128.569 154.32C128.569 154.553 128.495 154.743 128.349 154.89C128.202 155.03 128.009 155.1 127.769 155.1ZM133.525 155.09C133.138 155.09 132.801 155.03 132.515 154.91C132.235 154.783 132.018 154.603 131.865 154.37C131.718 154.137 131.638 153.857 131.625 153.53H132.425C132.438 153.797 132.541 154.007 132.735 154.16C132.928 154.313 133.191 154.39 133.525 154.39H134.035C134.381 154.39 134.648 154.313 134.835 154.16C135.028 154 135.125 153.78 135.125 153.5C135.125 153.247 135.061 153.043 134.935 152.89C134.815 152.73 134.635 152.637 134.395 152.61L132.955 152.41C132.561 152.35 132.251 152.197 132.025 151.95C131.805 151.697 131.695 151.36 131.695 150.94C131.695 150.467 131.858 150.093 132.185 149.82C132.511 149.547 132.958 149.41 133.525 149.41H133.995C134.515 149.41 134.941 149.54 135.275 149.8C135.608 150.06 135.791 150.4 135.825 150.82H135.025C135.005 150.613 134.901 150.44 134.715 150.3C134.528 150.16 134.288 150.09 133.995 150.09H133.525C133.198 150.09 132.941 150.167 132.755 150.32C132.568 150.473 132.475 150.68 132.475 150.94C132.475 151.147 132.531 151.313 132.645 151.44C132.765 151.567 132.931 151.643 133.145 151.67L134.505 151.86C134.958 151.92 135.305 152.09 135.545 152.37C135.785 152.65 135.905 153.02 135.905 153.48C135.905 153.98 135.738 154.373 135.405 154.66C135.078 154.947 134.621 155.09 134.035 155.09H133.525ZM139.241 155L137.371 149.5H138.221L139.481 153.31C139.547 153.517 139.607 153.72 139.661 153.92C139.714 154.12 139.754 154.277 139.781 154.39C139.807 154.277 139.844 154.12 139.891 153.92C139.944 153.72 140.001 153.517 140.061 153.31L141.311 149.5H142.151L140.281 155H139.241ZM145.757 155.1C145.33 155.1 144.96 155.013 144.647 154.84C144.334 154.667 144.09 154.42 143.917 154.1C143.744 153.773 143.657 153.39 143.657 152.95V151.55C143.657 151.103 143.744 150.72 143.917 150.4C144.09 150.08 144.334 149.833 144.647 149.66C144.96 149.487 145.33 149.4 145.757 149.4C146.184 149.4 146.554 149.487 146.867 149.66C147.18 149.827 147.424 150.067 147.597 150.38C147.77 150.687 147.857 151.05 147.857 151.47V152.45H144.427V153.03C144.427 153.457 144.547 153.793 144.787 154.04C145.027 154.287 145.35 154.41 145.757 154.41C146.104 154.41 146.39 154.34 146.617 154.2C146.844 154.053 146.98 153.857 147.027 153.61H147.817C147.757 154.07 147.54 154.433 147.167 154.7C146.794 154.967 146.324 155.1 145.757 155.1ZM147.087 151.91V151.47C147.087 151.023 146.97 150.677 146.737 150.43C146.504 150.183 146.177 150.06 145.757 150.06C145.337 150.06 145.01 150.183 144.777 150.43C144.544 150.677 144.427 151.023 144.427 151.47V151.82H147.167L147.087 151.91ZM152.523 155C152.21 155 151.936 154.94 151.703 154.82C151.476 154.7 151.3 154.527 151.173 154.3C151.046 154.073 150.983 153.807 150.983 153.5V148.42H149.103V147.7H151.773V153.5C151.773 153.747 151.84 153.94 151.973 154.08C152.106 154.213 152.29 154.28 152.523 154.28H154.223V155H152.523ZM158.299 155C157.852 155 157.499 154.877 157.239 154.63C156.979 154.377 156.849 154.033 156.849 153.6V150.22H155.259V149.5H156.849V147.95H157.649V149.5H159.909V150.22H157.649V153.6C157.649 153.807 157.706 153.973 157.819 154.1C157.939 154.22 158.099 154.28 158.299 154.28H159.859V155H158.299ZM163.745 155.1C163.318 155.1 162.948 155.013 162.635 154.84C162.322 154.667 162.078 154.42 161.905 154.1C161.732 153.773 161.645 153.39 161.645 152.95V151.55C161.645 151.103 161.732 150.72 161.905 150.4C162.078 150.08 162.322 149.833 162.635 149.66C162.948 149.487 163.318 149.4 163.745 149.4C164.172 149.4 164.542 149.487 164.855 149.66C165.168 149.827 165.412 150.067 165.585 150.38C165.758 150.687 165.845 151.05 165.845 151.47V152.45H162.415V153.03C162.415 153.457 162.535 153.793 162.775 154.04C163.015 154.287 163.338 154.41 163.745 154.41C164.092 154.41 164.378 154.34 164.605 154.2C164.832 154.053 164.968 153.857 165.015 153.61H165.805C165.745 154.07 165.528 154.433 165.155 154.7C164.782 154.967 164.312 155.1 163.745 155.1ZM165.075 151.91V151.47C165.075 151.023 164.958 150.677 164.725 150.43C164.492 150.183 164.165 150.06 163.745 150.06C163.325 150.06 162.998 150.183 162.765 150.43C162.532 150.677 162.415 151.023 162.415 151.47V151.82H165.155L165.075 151.91Z" fill="#FF3F00"/>
<path d="M69.9659 128V122.5H70.7659V123.52H70.9359L70.7359 123.85C70.7359 123.403 70.8692 123.05 71.1359 122.79C71.4026 122.53 71.7726 122.4 72.2459 122.4C72.8259 122.4 73.2692 122.573 73.5759 122.92C73.8826 123.26 74.0359 123.743 74.0359 124.37V124.85H73.2459V124.37C73.2459 123.943 73.1392 123.623 72.9259 123.41C72.7192 123.197 72.4159 123.09 72.0159 123.09C71.6092 123.09 71.2992 123.21 71.0859 123.45C70.8726 123.683 70.7659 124.023 70.7659 124.47V128H69.9659ZM77.792 128.09C77.3653 128.09 76.992 128.003 76.672 127.83C76.3587 127.657 76.1153 127.41 75.942 127.09C75.7753 126.77 75.692 126.387 75.692 125.94V124.56C75.692 124.113 75.7753 123.73 75.942 123.41C76.1153 123.09 76.3587 122.843 76.672 122.67C76.992 122.497 77.3653 122.41 77.792 122.41C78.2253 122.41 78.5987 122.497 78.912 122.67C79.2253 122.843 79.4653 123.09 79.632 123.41C79.8053 123.73 79.892 124.113 79.892 124.56V125.94C79.892 126.387 79.8053 126.77 79.632 127.09C79.4653 127.41 79.222 127.657 78.902 127.83C78.5887 128.003 78.2187 128.09 77.792 128.09ZM77.792 127.38C78.2053 127.38 78.5253 127.263 78.752 127.03C78.9853 126.797 79.102 126.457 79.102 126.01V124.49C79.102 124.043 78.9853 123.703 78.752 123.47C78.5187 123.237 78.1987 123.12 77.792 123.12C77.3853 123.12 77.0653 123.237 76.832 123.47C76.5987 123.703 76.482 124.043 76.482 124.49V126.01C76.482 126.457 76.5987 126.797 76.832 127.03C77.0653 127.263 77.3853 127.38 77.792 127.38ZM83.7781 128.1C83.1581 128.1 82.6614 127.913 82.2881 127.54C81.9214 127.167 81.7381 126.66 81.7381 126.02V122.5H82.5281V126.02C82.5281 126.447 82.6381 126.783 82.8581 127.03C83.0848 127.277 83.3914 127.4 83.7781 127.4C84.1714 127.4 84.4814 127.277 84.7081 127.03C84.9348 126.783 85.0481 126.447 85.0481 126.02V122.5H85.8381V126.02C85.8381 126.66 85.6514 127.167 85.2781 127.54C84.9048 127.913 84.4048 128.1 83.7781 128.1ZM90.3342 128C89.8875 128 89.5342 127.877 89.2742 127.63C89.0142 127.377 88.8842 127.033 88.8842 126.6V123.22H87.2942V122.5H88.8842V120.95H89.6842V122.5H91.9442V123.22H89.6842V126.6C89.6842 126.807 89.7408 126.973 89.8542 127.1C89.9742 127.22 90.1342 127.28 90.3342 127.28H91.8942V128H90.3342ZM95.7803 128.1C95.3536 128.1 94.9836 128.013 94.6703 127.84C94.3569 127.667 94.1136 127.42 93.9403 127.1C93.7669 126.773 93.6803 126.39 93.6803 125.95V124.55C93.6803 124.103 93.7669 123.72 93.9403 123.4C94.1136 123.08 94.3569 122.833 94.6703 122.66C94.9836 122.487 95.3536 122.4 95.7803 122.4C96.2069 122.4 96.5769 122.487 96.8903 122.66C97.2036 122.827 97.4469 123.067 97.6203 123.38C97.7936 123.687 97.8803 124.05 97.8803 124.47V125.45H94.4503V126.03C94.4503 126.457 94.5703 126.793 94.8103 127.04C95.0503 127.287 95.3736 127.41 95.7803 127.41C96.1269 127.41 96.4136 127.34 96.6403 127.2C96.8669 127.053 97.0036 126.857 97.0503 126.61H97.8403C97.7803 127.07 97.5636 127.433 97.1903 127.7C96.8169 127.967 96.3469 128.1 95.7803 128.1ZM97.1103 124.91V124.47C97.1103 124.023 96.9936 123.677 96.7603 123.43C96.5269 123.183 96.2003 123.06 95.7803 123.06C95.3603 123.06 95.0336 123.183 94.8003 123.43C94.5669 123.677 94.4503 124.023 94.4503 124.47V124.82H97.1903L97.1103 124.91ZM101.536 128.09C101.15 128.09 100.813 128.03 100.526 127.91C100.246 127.783 100.03 127.603 99.8764 127.37C99.7297 127.137 99.6497 126.857 99.6364 126.53H100.436C100.45 126.797 100.553 127.007 100.746 127.16C100.94 127.313 101.203 127.39 101.536 127.39H102.046C102.393 127.39 102.66 127.313 102.846 127.16C103.04 127 103.136 126.78 103.136 126.5C103.136 126.247 103.073 126.043 102.946 125.89C102.826 125.73 102.646 125.637 102.406 125.61L100.966 125.41C100.573 125.35 100.263 125.197 100.036 124.95C99.8164 124.697 99.7064 124.36 99.7064 123.94C99.7064 123.467 99.8697 123.093 100.196 122.82C100.523 122.547 100.97 122.41 101.536 122.41H102.006C102.526 122.41 102.953 122.54 103.286 122.8C103.62 123.06 103.803 123.4 103.836 123.82H103.036C103.016 123.613 102.913 123.44 102.726 123.3C102.54 123.16 102.3 123.09 102.006 123.09H101.536C101.21 123.09 100.953 123.167 100.766 123.32C100.58 123.473 100.486 123.68 100.486 123.94C100.486 124.147 100.543 124.313 100.656 124.44C100.776 124.567 100.943 124.643 101.156 124.67L102.516 124.86C102.97 124.92 103.316 125.09 103.556 125.37C103.796 125.65 103.916 126.02 103.916 126.48C103.916 126.98 103.75 127.373 103.416 127.66C103.09 127.947 102.633 128.09 102.046 128.09H101.536ZM105.572 129.1L109.132 119.7H109.972L106.412 129.1H105.572ZM113.849 128.1C113.422 128.1 113.049 128.017 112.729 127.85C112.409 127.683 112.159 127.447 111.979 127.14C111.799 126.827 111.709 126.457 111.709 126.03V124.47C111.709 124.043 111.799 123.677 111.979 123.37C112.159 123.057 112.409 122.817 112.729 122.65C113.049 122.483 113.422 122.4 113.849 122.4C114.475 122.4 114.979 122.57 115.359 122.91C115.745 123.25 115.945 123.713 115.959 124.3H115.159C115.145 123.92 115.022 123.627 114.789 123.42C114.562 123.213 114.249 123.11 113.849 123.11C113.442 123.11 113.115 123.23 112.869 123.47C112.629 123.703 112.509 124.037 112.509 124.47V126.03C112.509 126.457 112.629 126.79 112.869 127.03C113.115 127.27 113.442 127.39 113.849 127.39C114.249 127.39 114.562 127.287 114.789 127.08C115.022 126.867 115.145 126.573 115.159 126.2H115.959C115.945 126.787 115.745 127.25 115.359 127.59C114.979 127.93 114.475 128.1 113.849 128.1ZM119.765 128.09C119.338 128.09 118.965 128.003 118.645 127.83C118.331 127.657 118.088 127.41 117.915 127.09C117.748 126.77 117.665 126.387 117.665 125.94V124.56C117.665 124.113 117.748 123.73 117.915 123.41C118.088 123.09 118.331 122.843 118.645 122.67C118.965 122.497 119.338 122.41 119.765 122.41C120.198 122.41 120.571 122.497 120.885 122.67C121.198 122.843 121.438 123.09 121.605 123.41C121.778 123.73 121.865 124.113 121.865 124.56V125.94C121.865 126.387 121.778 126.77 121.605 127.09C121.438 127.41 121.195 127.657 120.875 127.83C120.561 128.003 120.191 128.09 119.765 128.09ZM119.765 127.38C120.178 127.38 120.498 127.263 120.725 127.03C120.958 126.797 121.075 126.457 121.075 126.01V124.49C121.075 124.043 120.958 123.703 120.725 123.47C120.491 123.237 120.171 123.12 119.765 123.12C119.358 123.12 119.038 123.237 118.805 123.47C118.571 123.703 118.455 124.043 118.455 124.49V126.01C118.455 126.457 118.571 126.797 118.805 127.03C119.038 127.263 119.358 127.38 119.765 127.38ZM123.401 128V122.5H124.091V123.24H124.251L124.101 123.4C124.101 123.1 124.184 122.86 124.351 122.68C124.524 122.493 124.754 122.4 125.041 122.4C125.347 122.4 125.594 122.513 125.781 122.74C125.974 122.96 126.074 123.253 126.081 123.62L125.861 123.2H126.201L126.011 123.4C126.017 123.093 126.107 122.85 126.281 122.67C126.454 122.49 126.687 122.4 126.981 122.4C127.327 122.4 127.604 122.53 127.811 122.79C128.017 123.043 128.121 123.377 128.121 123.79V128H127.371V123.79C127.371 123.557 127.314 123.37 127.201 123.23C127.087 123.09 126.931 123.02 126.731 123.02C126.537 123.02 126.384 123.09 126.271 123.23C126.157 123.363 126.101 123.55 126.101 123.79V128H125.421V123.79C125.421 123.557 125.364 123.37 125.251 123.23C125.137 123.09 124.984 123.02 124.791 123.02C124.591 123.02 124.434 123.09 124.321 123.23C124.207 123.363 124.151 123.55 124.151 123.79V128H123.401ZM129.727 129.8V122.5H130.517V123.52H130.697L130.487 123.8C130.487 123.367 130.627 123.027 130.907 122.78C131.194 122.527 131.567 122.4 132.027 122.4C132.394 122.4 132.71 122.483 132.977 122.65C133.25 122.81 133.46 123.043 133.607 123.35C133.76 123.65 133.837 124.01 133.837 124.43V126.06C133.837 126.48 133.764 126.843 133.617 127.15C133.47 127.45 133.26 127.683 132.987 127.85C132.72 128.017 132.4 128.1 132.027 128.1C131.567 128.1 131.194 127.973 130.907 127.72C130.627 127.467 130.487 127.127 130.487 126.7L130.697 126.98H130.507L130.517 128.15V129.8H129.727ZM131.777 127.41C132.177 127.41 132.487 127.3 132.707 127.08C132.934 126.86 133.047 126.52 133.047 126.06V124.43C133.047 123.97 132.934 123.633 132.707 123.42C132.487 123.2 132.177 123.09 131.777 123.09C131.39 123.09 131.084 123.213 130.857 123.46C130.63 123.7 130.517 124.037 130.517 124.47V126.03C130.517 126.463 130.63 126.803 130.857 127.05C131.084 127.29 131.39 127.41 131.777 127.41ZM137.753 128.09C137.326 128.09 136.953 128.003 136.633 127.83C136.32 127.657 136.076 127.41 135.903 127.09C135.736 126.77 135.653 126.387 135.653 125.94V124.56C135.653 124.113 135.736 123.73 135.903 123.41C136.076 123.09 136.32 122.843 136.633 122.67C136.953 122.497 137.326 122.41 137.753 122.41C138.186 122.41 138.56 122.497 138.873 122.67C139.186 122.843 139.426 123.09 139.593 123.41C139.766 123.73 139.853 124.113 139.853 124.56V125.94C139.853 126.387 139.766 126.77 139.593 127.09C139.426 127.41 139.183 127.657 138.863 127.83C138.55 128.003 138.18 128.09 137.753 128.09ZM137.753 127.38C138.166 127.38 138.486 127.263 138.713 127.03C138.946 126.797 139.063 126.457 139.063 126.01V124.49C139.063 124.043 138.946 123.703 138.713 123.47C138.48 123.237 138.16 123.12 137.753 123.12C137.346 123.12 137.026 123.237 136.793 123.47C136.56 123.703 136.443 124.043 136.443 124.49V126.01C136.443 126.457 136.56 126.797 136.793 127.03C137.026 127.263 137.346 127.38 137.753 127.38ZM141.719 128V122.5H142.509V123.52H142.689L142.489 123.81C142.489 123.363 142.622 123.017 142.889 122.77C143.156 122.523 143.526 122.4 143.999 122.4C144.546 122.4 144.982 122.573 145.309 122.92C145.636 123.26 145.799 123.723 145.799 124.31V128H145.009V124.44C145.009 124 144.899 123.663 144.679 123.43C144.459 123.19 144.159 123.07 143.779 123.07C143.386 123.07 143.076 123.193 142.849 123.44C142.622 123.687 142.509 124.03 142.509 124.47V128H141.719ZM149.745 128.1C149.318 128.1 148.948 128.013 148.635 127.84C148.322 127.667 148.078 127.42 147.905 127.1C147.732 126.773 147.645 126.39 147.645 125.95V124.55C147.645 124.103 147.732 123.72 147.905 123.4C148.078 123.08 148.322 122.833 148.635 122.66C148.948 122.487 149.318 122.4 149.745 122.4C150.172 122.4 150.542 122.487 150.855 122.66C151.168 122.827 151.412 123.067 151.585 123.38C151.758 123.687 151.845 124.05 151.845 124.47V125.45H148.415V126.03C148.415 126.457 148.535 126.793 148.775 127.04C149.015 127.287 149.338 127.41 149.745 127.41C150.092 127.41 150.378 127.34 150.605 127.2C150.832 127.053 150.968 126.857 151.015 126.61H151.805C151.745 127.07 151.528 127.433 151.155 127.7C150.782 127.967 150.312 128.1 149.745 128.1ZM151.075 124.91V124.47C151.075 124.023 150.958 123.677 150.725 123.43C150.492 123.183 150.165 123.06 149.745 123.06C149.325 123.06 148.998 123.183 148.765 123.43C148.532 123.677 148.415 124.023 148.415 124.47V124.82H151.155L151.075 124.91ZM153.711 128V122.5H154.501V123.52H154.681L154.481 123.81C154.481 123.363 154.615 123.017 154.881 122.77C155.148 122.523 155.518 122.4 155.991 122.4C156.538 122.4 156.975 122.573 157.301 122.92C157.628 123.26 157.791 123.723 157.791 124.31V128H157.001V124.44C157.001 124 156.891 123.663 156.671 123.43C156.451 123.19 156.151 123.07 155.771 123.07C155.378 123.07 155.068 123.193 154.841 123.44C154.615 123.687 154.501 124.03 154.501 124.47V128H153.711ZM162.287 128C161.841 128 161.487 127.877 161.227 127.63C160.967 127.377 160.837 127.033 160.837 126.6V123.22H159.247V122.5H160.837V120.95H161.637V122.5H163.897V123.22H161.637V126.6C161.637 126.807 161.694 126.973 161.807 127.1C161.927 127.22 162.087 127.28 162.287 127.28H163.847V128H162.287ZM167.493 128.09C167.107 128.09 166.77 128.03 166.483 127.91C166.203 127.783 165.987 127.603 165.833 127.37C165.687 127.137 165.607 126.857 165.593 126.53H166.393C166.407 126.797 166.51 127.007 166.703 127.16C166.897 127.313 167.16 127.39 167.493 127.39H168.003C168.35 127.39 168.617 127.313 168.803 127.16C168.997 127 169.093 126.78 169.093 126.5C169.093 126.247 169.03 126.043 168.903 125.89C168.783 125.73 168.603 125.637 168.363 125.61L166.923 125.41C166.53 125.35 166.22 125.197 165.993 124.95C165.773 124.697 165.663 124.36 165.663 123.94C165.663 123.467 165.827 123.093 166.153 122.82C166.48 122.547 166.927 122.41 167.493 122.41H167.963C168.483 122.41 168.91 122.54 169.243 122.8C169.577 123.06 169.76 123.4 169.793 123.82H168.993C168.973 123.613 168.87 123.44 168.683 123.3C168.497 123.16 168.257 123.09 167.963 123.09H167.493C167.167 123.09 166.91 123.167 166.723 123.32C166.537 123.473 166.443 123.68 166.443 123.94C166.443 124.147 166.5 124.313 166.613 124.44C166.733 124.567 166.9 124.643 167.113 124.67L168.473 124.86C168.927 124.92 169.273 125.09 169.513 125.37C169.753 125.65 169.873 126.02 169.873 126.48C169.873 126.98 169.707 127.373 169.373 127.66C169.047 127.947 168.59 128.09 168.003 128.09H167.493Z" fill="black"/>
</svg>
