<svg viewBox="0 0 15 15" fill="none" xmlns="http://www.w3.org/2000/svg" id="icon">
<path d="M0 13H4.63L4.5 8H0V13Z" fill="#FF5723"></path>
<path d="M14.1465 5.14652C14.3418 4.95126 14.6584 4.95126 14.8536 5.14652C15.0489 5.34179 15.0489 5.65837 14.8536 5.85363L14.5001 5.50008L14.1465 5.14652ZM12.0001 8.00008L12.3536 8.35363C12.1584 8.54889 11.8418 8.54889 11.6465 8.35363L12.0001 8.00008ZM7.00008 3.00008L6.64652 3.35363C6.55276 3.25986 6.50008 3.13269 6.50008 3.00008C6.50008 2.86747 6.55276 2.74029 6.64652 2.64652L7.00008 3.00008ZM9.14652 0.146525C9.34179 -0.0487373 9.65837 -0.0487373 9.85363 0.146525C10.0489 0.341787 10.0489 0.658369 9.85363 0.853632L9.50008 0.500078L9.14652 0.146525ZM6.00008 5.00008L5.64652 5.35363C5.55276 5.25986 5.50008 5.13269 5.50008 5.00008C5.50008 4.86747 5.55276 4.74029 5.64652 4.64652L6.00008 5.00008ZM10.0001 9.00008L10.3536 9.35363C10.1584 9.54889 9.84179 9.54889 9.64652 9.35363L10.0001 9.00008ZM9.00008 8.00008L9.35363 7.64652L9.35363 7.64652L9.00008 8.00008ZM5 11.9302L5.35042 12.2868L4.62152 13.003L4.50335 11.988L5 11.9302ZM4.56226 8.17L4.06561 8.22782L4.03894 7.99871L4.19591 7.82972L4.56226 8.17ZM6.78117 5.78117L7.13472 5.42761L7.13472 5.42761L6.78117 5.78117ZM14.5001 5.50008L14.8536 5.85363L12.3536 8.35363L12.0001 8.00008L11.6465 7.64652L14.1465 5.14652L14.5001 5.50008ZM7.00008 3.00008L6.64652 2.64652L9.14652 0.146525L9.50008 0.500078L9.85363 0.853632L7.35363 3.35363L7.00008 3.00008ZM7.50008 3.50008L7.14652 3.85363L6.64652 3.35363L7.00008 3.00008L7.35363 2.64652L7.85363 3.14652L7.50008 3.50008ZM7.50008 3.50008L7.85363 3.85363L6.35363 5.35363L6.00008 5.00008L5.64652 4.64652L7.14652 3.14652L7.50008 3.50008ZM12.0001 8.00008L11.6465 8.35363L11.1465 7.85363L11.5001 7.50008L11.8536 7.14652L12.3536 7.64652L12.0001 8.00008ZM11.5001 7.50008L11.1465 7.85363L7.14652 3.85363L7.50008 3.50008L7.85363 3.14652L11.8536 7.14652L11.5001 7.50008ZM10.0001 9.00008L9.64652 8.64652L11.1465 7.14652L11.5001 7.50008L11.8536 7.85363L10.3536 9.35363L10.0001 9.00008ZM9.00008 8.00008L9.35363 7.64652L10.3536 8.64652L10.0001 9.00008L9.64652 9.35363L8.64652 8.35363L9.00008 8.00008ZM9.00008 8.00008L9.3505 8.35674L5.35042 12.2868L5 11.9302L4.64958 11.5735L8.64966 7.64342L9.00008 8.00008ZM5 11.9302L4.50335 11.988L4.06561 8.22782L4.56226 8.17L5.0589 8.11218L5.49665 11.8724L5 11.9302ZM6.00008 5.00008L6.35363 4.64652L7.13472 5.42761L6.78117 5.78117L6.42761 6.13472L5.64652 5.35363L6.00008 5.00008ZM6.78117 5.78117L7.13472 5.42761L9.35363 7.64652L9.00008 8.00008L8.64652 8.35363L6.42761 6.13472L6.78117 5.78117ZM4.56226 8.17L4.19591 7.82972L6.41482 5.44088L6.78117 5.78117L7.14751 6.12145L4.9286 8.51028L4.56226 8.17Z" fill="currentColor"></path>
</svg>
